<svg width="267" height="1" fill="none" xmlns="http://www.w3.org/2000/svg"><g clip-path="url(#clip0_396_15773)"><path fill="#000" d="M0 0v1h267V0z"/><path d="M-2.994 0a.5.5 0 010 1V0zM3.04 1a.5.5 0 110-1v1zm2.012-1a.5.5 0 110 1V0zm6.035 1a.5.5 0 110-1v1zM13.1 0a.5.5 0 110 1V0zm6.035 1a.5.5 0 110-1v1zm2.011-1a.5.5 0 010 1V0zm6.036 1a.5.5 0 010-1v1zm2.011-1a.5.5 0 010 1V0zm6.035 1a.5.5 0 010-1v1zm2.012-1a.5.5 0 110 1V0zm6.035 1a.5.5 0 110-1v1zm2.012-1a.5.5 0 110 1V0zm6.035 1a.5.5 0 110-1v1zm2.012-1a.5.5 0 010 1V0zm6.035 1a.5.5 0 010-1v1zm2.012-1a.5.5 0 010 1V0zm6.035 1a.5.5 0 010-1v1zm2.012-1a.5.5 0 110 1V0zm6.035 1a.5.5 0 110-1v1zm2.012-1a.5.5 0 110 1V0zm6.035 1a.5.5 0 110-1v1zm2.011-1a.5.5 0 010 1V0zm6.036 1a.5.5 0 010-1v1zm2.011-1a.5.5 0 010 1V0zm6.035 1a.5.5 0 010-1v1zm2.012-1a.5.5 0 010 1V0zm6.035 1a.5.5 0 010-1v1zm2.012-1a.5.5 0 010 1V0zm6.035 1a.5.5 0 010-1v1zm2.012-1a.5.5 0 010 1V0zm6.035 1a.5.5 0 010-1v1zm2.012-1a.5.5 0 010 1V0zm6.035 1a.5.5 0 010-1v1zm2.012-1a.5.5 0 010 1V0zm6.035 1a.5.5 0 010-1v1zm2.012-1a.5.5 0 010 1V0zm6.035 1a.5.5 0 010-1v1zm2.011-1a.5.5 0 110 1V0zm6.036 1a.5.5 0 010-1v1zm2.011-1a.5.5 0 010 1V0zm6.036 1a.5.5 0 110-1v1zm2.011-1a.5.5 0 010 1V0zm6.035 1a.5.5 0 010-1v1zm2.012-1a.5.5 0 010 1V0zm6.035 1a.5.5 0 010-1v1zm2.012-1a.5.5 0 010 1V0zm6.035 1a.5.5 0 010-1v1zm2.012-1a.5.5 0 010 1V0zm6.035 1a.5.5 0 010-1v1zm2.012-1a.5.5 0 010 1V0zm6.035 1a.5.5 0 010-1v1zm2.012-1a.5.5 0 010 1V0zm6.035 1a.5.5 0 010-1v1zm2.011-1a.5.5 0 110 1V0zm6.036 1a.5.5 0 010-1v1zm2.011-1a.5.5 0 010 1V0zm6.036 1a.5.5 0 110-1v1zm2.011-1a.5.5 0 010 1V0zm6.035 1a.5.5 0 010-1v1zm2.012-1a.5.5 0 010 1V0zm6.035 1a.5.5 0 010-1v1zm2.012-1a.5.5 0 010 1V0zm6.035 1a.5.5 0 010-1v1zm2.012-1a.5.5 0 010 1V0zm6.035 1a.5.5 0 010-1v1zm2.012-1a.5.5 0 010 1V0zm6.035 1a.5.5 0 010-1v1zm2.012-1a.5.5 0 010 1V0zm6.035 1a.5.5 0 010-1v1zm2.011-1a.5.5 0 110 1V0zm6.036 1a.5.5 0 110-1v1zm2.011-1a.5.5 0 110 1V0zm6.036 1a.5.5 0 110-1v1zm2.011-1a.5.5 0 010 1V0zm6.035 1a.5.5 0 010-1v1zm2.012-1a.5.5 0 010 1V0zm6.035 1a.5.5 0 010-1v1zm2.012-1a.5.5 0 010 1V0zm6.035 1a.5.5 0 010-1v1zm2.012-1a.5.5 0 010 1V0zm6.035 1a.5.5 0 010-1v1zm2.012-1a.5.5 0 010 1V0zm6.035 1a.5.5 0 010-1v1zm2.012-1a.5.5 0 010 1V0zm6.035 1a.5.5 0 010-1v1zm2.011-1a.5.5 0 110 1V0zm6.036 1a.5.5 0 110-1v1zm2.011-1a.5.5 0 110 1V0zm6.036 1a.5.5 0 110-1v1zm2.011-1a.5.5 0 010 1V0zm6.035 1a.5.5 0 010-1v1zm2.012-1a.5.5 0 010 1V0zm6.035 1a.5.5 0 010-1v1zm2.012-1a.5.5 0 010 1V0zm6.035 1a.5.5 0 010-1v1zm2.012-1a.5.5 0 010 1V0zm6.035 1a.5.5 0 010-1v1zm2.012-1a.5.5 0 010 1V0zm6.035 1a.5.5 0 010-1v1zm2.012-1a.5.5 0 010 1V0zm6.035 1a.5.5 0 010-1v1zm2.011-1a.5.5 0 110 1V0zm6.036 1a.5.5 0 110-1v1zm2.011-1a.5.5 0 110 1V0zm6.036 1a.5.5 0 110-1v1zm2.011-1a.5.5 0 010 1V0zm6.035 1a.5.5 0 010-1v1zm2.012-1a.5.5 0 010 1V0zm6.035 1a.5.5 0 010-1v1zm2.012-1a.5.5 0 010 1V0zm6.035 1a.5.5 0 010-1v1zm2.012-1a.5.5 0 010 1V0zm6.035 1a.5.5 0 010-1v1zm2.012-1a.5.5 0 010 1V0zm6.035 1a.5.5 0 010-1v1zm2.012-1a.5.5 0 010 1V0zm6.035 1a.5.5 0 010-1v1zm2.011-1a.5.5 0 110 1V0zm6.036 1a.5.5 0 110-1v1zm2.011-1a.5.5 0 110 1V0zm6.036 1a.5.5 0 110-1v1zm2.011-1a.5.5 0 010 1V0zm6.035 1a.5.5 0 010-1v1zm2.012-1a.5.5 0 010 1V0zm6.035 1a.5.5 0 010-1v1zm2.012-1a.5.5 0 010 1V0zm6.035 1a.5.5 0 010-1v1zM-4 0h1.006v1H-4V0zm7.041 0h2.012v1H3.04V0zm8.047 0H13.1v1h-2.012V0zm8.047 0h2.011v1h-2.011V0zm8.047 0h2.011v1h-2.011V0zm8.046 0h2.012v1h-2.012V0zm8.047 0h2.012v1h-2.012V0zm8.047 0h2.012v1h-2.012V0zm8.047 0h2.012v1h-2.012V0zm8.047 0h2.012v1h-2.012V0zm8.047 0h2.012v1h-2.012V0zm8.047 0h2.011v1H83.51V0zm8.047 0h2.011v1h-2.011V0zm8.046 0h2.012v1h-2.011V0zm8.047 0h2.012v1h-2.012V0zm8.047 0h2.012v1h-2.012V0zm8.047 0h2.012v1h-2.012V0zm8.047 0h2.012v1h-2.012V0zm8.047 0h2.012v1h-2.012V0zm8.047 0h2.011v1h-2.011V0zm8.047 0h2.011v1h-2.011V0zm8.047 0h2.011v1h-2.011V0zm8.046 0h2.012v1h-2.012V0zm8.047 0h2.012v1h-2.012V0zm8.047 0h2.012v1h-2.012V0zm8.047 0h2.012v1h-2.012V0zm8.047 0h2.012v1h-2.012V0zm8.047 0h2.011v1h-2.011V0zm8.047 0h2.011v1h-2.011V0zm8.047 0h2.011v1h-2.011V0zm8.046 0h2.012v1H236.4V0zm8.047 0h2.012v1h-2.012V0zm8.047 0h2.012v1h-2.012V0zm8.047 0h2.012v1h-2.012V0zm8.047 0h2.012v1h-2.012V0zm8.047 0h2.011v1h-2.011V0zm8.047 0h2.011v1h-2.011V0zm8.047 0h2.011v1h-2.011V0zm8.046 0h2.012v1h-2.012V0zm8.047 0h2.012v1h-2.012V0zm8.047 0h2.012v1h-2.012V0zm8.047 0h2.012v1h-2.012V0zm8.047 0h2.012v1h-2.012V0zm8.047 0h2.011v1h-2.011V0zm8.047 0h2.011v1h-2.011V0zm8.047 0h2.011v1h-2.011V0zm8.046 0h2.012v1h-2.012V0zm8.047 0h2.012v1h-2.012V0zm8.047 0h2.012v1h-2.012V0zm8.047 0h2.012v1h-2.012V0zm8.047 0h2.012v1h-2.012V0zm8.047 0h2.011v1h-2.011V0zm8.047 0h2.011v1h-2.011V0zm8.047 0h2.011v1h-2.011V0zm8.046 0h2.012v1h-2.012V0zm8.047 0h2.012v1h-2.012V0zm8.047 0h2.012v1h-2.012V0zm8.047 0h2.012v1h-2.012V0zm8.047 0h2.012v1h-2.012V0zm8.047 0h2.011v1h-2.011V0zm8.047 0h2.011v1h-2.011V0zm8.047 0h2.011v1h-2.011V0zm8.046 0h2.012v1H493.9V0zm8.047 0h2.012v1h-2.012V0zm8.047 0H511v1h-1.006V0z" fill="#3A3A3A"/></g><defs><clipPath id="clip0_396_15773"><path fill="#fff" transform="matrix(0 1 1 0 0 0)" d="M0 0h1v267H0z"/></clipPath></defs></svg>