<svg width="530" height="542" fill="none" xmlns="http://www.w3.org/2000/svg"><path fill-rule="evenodd" clip-rule="evenodd" d="M123 45.744a261.935 261.935 0 00-68.659 64.799l.871.504A260.934 260.934 0 01123 46.937v-1.193zm280-.733a260.913 260.913 0 0171.094 66.453l.87-.504A261.907 261.907 0 00403 43.829v1.182zM294 523.348v-1.006a257.842 257.842 0 0065-16.086v1.074a258.874 258.874 0 01-65 16.018zM523.768 239h-1.005a257.866 257.866 0 00-19.704-76.796l.871-.505A258.876 258.876 0 01523.768 239zM236 522.453v1.006a258.78 258.78 0 01-80-22.06v-1.101a257.8 257.8 0 0080 22.155zM6.658 235a257.793 257.793 0 0119.488-73.272l-.872-.504A258.777 258.777 0 005.652 235h1.006z" fill="#3A3A3A"/><g clip-path="url(#clip0_171_184)"><path fill-rule="evenodd" clip-rule="evenodd" d="M36.923 148.516c5.263.576 10.614-1.927 13.431-6.806 3.803-6.587 1.546-15.009-5.04-18.812a13.753 13.753 0 00-5.85-1.809c-5.11-.382-10.229 2.116-12.962 6.85-3.803 6.586-1.546 15.008 5.04 18.811a13.717 13.717 0 005.381 1.766zm8.964-26.612c7.136 4.12 9.58 13.244 5.46 20.379-4.119 7.136-13.243 9.581-20.378 5.461-7.136-4.12-9.58-13.244-5.46-20.379 4.119-7.135 13.243-9.58 20.378-5.461z" fill="#3A3A3A"/><path d="M34.411 141.781l7.46-12.92m0 0l-7.838 2.1m7.838-2.1l2.1 7.838" stroke="#E2E2E2" stroke-width="1.721"/></g><g clip-path="url(#clip1_171_184)"><path fill-rule="evenodd" clip-rule="evenodd" d="M478.852 143.973a13.859 13.859 0 01-1.63-2.263c-3.802-6.587-1.546-15.009 5.041-18.812 5.763-3.327 12.932-2.015 17.181 2.777a13.857 13.857 0 011.63 2.264c3.803 6.586 1.546 15.009-5.04 18.811-5.763 3.328-12.932 2.016-17.182-2.777zm17.756 3.771c-7.136 4.12-16.26 1.675-20.379-5.46-4.12-7.136-1.675-16.26 5.46-20.379 7.135-4.12 16.26-1.675 20.379 5.46 4.12 7.136 1.675 16.26-5.46 20.379z" fill="#3A3A3A"/><path d="M485.132 127.867l7.459 12.92m0 0l2.1-7.838m-2.1 7.838l-7.838-2.1" stroke="#E2E2E2" stroke-width="1.721"/></g><g clip-path="url(#clip2_171_184)"><path fill-rule="evenodd" clip-rule="evenodd" d="M250.731 525.97l-.001.178c0 7.606 6.165 13.771 13.77 13.771 6.705 0 12.291-4.792 13.52-11.138.165-.852.251-1.732.251-2.633 0-7.605-6.165-13.771-13.771-13.771-6.654 0-12.207 4.721-13.491 10.996-.172.84-.267 1.709-.278 2.597zm-1.149.178c0-8.239 6.679-14.918 14.918-14.918 8.24 0 14.919 6.679 14.919 14.918 0 8.239-6.679 14.919-14.919 14.919-8.239 0-14.918-6.68-14.918-14.919z" fill="#3A3A3A"/><path d="M272.533 526.148h-14.918m0 0l5.738 5.738m-5.738-5.738l5.738-5.738" stroke="#E2E2E2" stroke-width="1.721"/></g><path d="M518.708 266.485l-.029-1.47 8.594-8.466c-5.318.125-8.237.192-8.757.203l-.029-1.44 10.588-.209.031 1.545-8.581 8.406c5.468-.138 8.382-.211 8.742-.218l.029 1.44-10.588.209zm8.941 12.011l.24-7.932-3.388-.102-.231 7.631-1.245-.037.231-7.632-4.648-.14.045-1.485 10.585.321-.284 9.415-1.305-.039zm-.678 10.63l.297-4.325-9.308-.64.102-1.496 9.309.639.296-4.31 1.257.087-.696 10.131-1.257-.086zm.555 6.931l-.202 1.502-6.408-.861a5.105 5.105 0 00-1.037-.049 1.703 1.703 0 00-.739.203 3.307 3.307 0 00-.401.279 4.09 4.09 0 00-.315.321c-.566.681-.927 1.601-1.083 2.761a7.633 7.633 0 00-.054.628c-.002.242.007.586.028 1.033.02.447.121.864.301 1.251.18.388.428.683.743.887.336.207.835.355 1.499.444l6.423.863-.202 1.502-6.318-.85c-.843-.113-1.483-.3-1.923-.561-1.553-.905-2.147-2.715-1.782-5.431.032-.237.074-.479.128-.724a6.75 6.75 0 01.284-.991c.138-.425.3-.807.487-1.145.187-.338.449-.677.787-1.015a3.465 3.465 0 011.161-.752c.595-.222 1.412-.264 2.453-.124l6.17.829zm-4.949 22.978l.79-4.263-9.175-1.698.274-1.475 9.174 1.698.786-4.247 1.239.229-1.849 9.985-1.239-.229zm-10.004 1.933l.324-1.496 10.35 2.243-.324 1.495-10.35-2.242zm-2.851 11.79l2.059-8.282 10.277 2.554-.361 1.456-9.026-2.244-1.697 6.828-1.252-.312zm-.955 3.193l.414-1.473 10.195 2.863-.414 1.473-10.195-2.863zm5.459 14.02l1.297-4.136-8.903-2.791.449-1.432 8.902 2.792 1.293-4.123 1.202.377-3.038 9.69-1.202-.377zm-3.555 13.45l-4.243-7.282-3.843-1.413.512-1.394 3.872 1.424 7.89-2.724-.668 1.816-6.284 2.052 3.426 5.719-.662 1.802zm-9.252-1.244l-.615 1.515-1.765-.717c-.538-.218-.887-.5-1.049-.847-.165-.337-.143-.776.066-1.317l.764.311c-.07.252-.076.438-.017.559.055.131.203.245.444.343l.417.169.254-.625 1.501.609zm-9.296 16.916l.826-1.783 5.359-1.468 2.151-4.641-3.852-1.785.637-1.374 9.609 4.453-3.034 6.546c-.299.644-.584 1.129-.856 1.455-.471.564-1.025.914-1.661 1.049-.635.135-1.284.049-1.947-.258-1.215-.563-1.797-1.461-1.744-2.693.022-.331.097-.721.227-1.168l-5.715 1.667zm9.472-7.382l-2.202 4.75c-.155.336-.272.612-.351.829a2.84 2.84 0 00-.15.823c-.012.336.048.634.181.894.172.367.466.646.884.84.345.16.695.223 1.052.19.411-.03.734-.167.968-.411.23-.235.448-.575.654-1.02l2.448-5.28-3.484-1.615zm-14.757 17.408l4.707-8.999 9.384 4.908-4.526 8.653-1.156-.605 3.83-7.323-2.791-1.46-3.733 7.137-1.117-.584 3.733-7.137-3.163-1.655-4.011 7.669-1.157-.604zm2.468 16.76l-6.616-9.661.766-1.307 11.708.961-.841 1.437-9.824-.884 5.641 8.03-.834 1.424zm-15.336 4.092l5.54-8.51 8.875 5.778-5.328 8.184-1.093-.712 4.509-6.927-2.64-1.718-4.395 6.75-1.056-.687 4.395-6.751-2.991-1.948-4.723 7.253-1.093-.712zm-8.333 11.476l.868-1.187 11.968-1.52a7271.254 7271.254 0 01-7.087-5.149l.851-1.162 8.545 6.254-.912 1.247-11.921 1.481c4.432 3.206 6.793 4.915 7.084 5.128l-.85 1.162-8.546-6.254zm6.466 8.887l-.96 1.171-5.002-4.096a5.185 5.185 0 00-.857-.587c-.263-.137-.508-.209-.736-.214-.22 0-.382.009-.487.027a3.964 3.964 0 00-.437.107c-.839.282-1.629.876-2.371 1.781a7.653 7.653 0 00-.376.507c-.129.204-.302.502-.519.893-.216.391-.35.799-.4 1.223a2.04 2.04 0 00.167 1.145c.177.352.525.74 1.043 1.165l5.013 4.107-.96 1.171-4.932-4.039c-.658-.539-1.105-1.035-1.342-1.487-.846-1.586-.402-3.439 1.335-5.558.152-.186.315-.369.489-.55.16-.179.414-.41.762-.694a6.584 6.584 0 011.016-.719 4.58 4.58 0 011.202-.45 3.456 3.456 0 011.383-.031c.623.123 1.341.517 2.153 1.183l4.816 3.945zm-23.402 10.944l6.799-7.543 7.866 7.091-6.538 7.253-.969-.874 5.533-6.139-2.339-2.109-5.393 5.983-.936-.843 5.393-5.984-2.652-2.39-5.795 6.429-.969-.874zm-2.276 5.417l-.602 1.381c-.262-.01-.463-.017-.605-.018a4.669 4.669 0 00-1.415.352c-.832.335-1.678.921-2.538 1.758-.903.878-1.413 1.71-1.53 2.493-.086.6.074 1.108.478 1.523.223.23.469.367.737.413.261.053.537.015.829-.116.299-.123.562-.261.791-.413.221-.146.478-.34.771-.584l1.266-1.022a89.115 89.115 0 011.415-1.126c.272-.195.589-.378.952-.55a2.659 2.659 0 011.043-.261c.679-.019 1.27.229 1.772.745.753.774.96 1.689.62 2.745-.281.916-.955 1.893-2.023 2.932-1.813 1.765-3.573 2.487-5.28 2.167l.601-1.36a5.283 5.283 0 001.947-.388c.597-.246 1.215-.68 1.853-1.3.308-.3.577-.604.808-.912.237-.301.443-.62.617-.957.168-.33.239-.658.215-.984a1.278 1.278 0 00-.381-.843 1.354 1.354 0 00-.599-.379 1.162 1.162 0 00-.669.065 4.975 4.975 0 00-.62.31 8.64 8.64 0 00-.643.479l-2.574 2.065c-.865.688-1.683 1.066-2.455 1.134-.772.067-1.454-.204-2.047-.813a3.133 3.133 0 01-.685-1.049c-.151-.384-.215-.831-.194-1.339.028-.502.223-1.076.585-1.721.37-.639.905-1.3 1.608-1.983.946-.921 1.942-1.618 2.988-2.092s2.034-.591 2.964-.352zm-11.592 20.598l3.236-2.885-6.208-6.964 1.119-.998 6.209 6.964 3.225-2.875.838.941-7.58 6.757-.839-.94zm-16.372 1.284l1.527-1.236 5.457 1.043 3.976-3.219-2.672-3.299 1.178-.954 6.664 8.23-5.607 4.541c-.552.447-1.022.756-1.41.929-.671.299-1.322.369-1.952.21-.631-.158-1.175-.521-1.635-1.089-.843-1.041-.97-2.103-.38-3.186.166-.288.405-.604.719-.948l-5.865-1.022zm11.755-2.454l-4.069 3.294c-.287.233-.514.43-.68.59-.174.166-.34.391-.498.673-.159.296-.236.59-.231.882-.007.405.134.786.424 1.143.239.295.526.507.861.635.382.153.732.172 1.05.057.31-.11.655-.319 1.036-.627l4.523-3.663-2.416-2.984zm-20.879 9.112l8.187-6.008 6.265 8.538-7.873 5.777-.772-1.052 6.664-4.89-1.864-2.54-6.494 4.766-.746-1.016 6.494-4.765-2.112-2.879-6.977 5.121-.772-1.052zm-11.777 7.818l1.45-.962 2.517 1.463 5.427-3.596-.367-2.888 1.413-.937 1.274 11.861-1.338.886-10.376-5.827zm5.176 1.158l5.063 2.942-.699-5.834-4.364 2.892zm-18.839 6.725l1.235-.711 4.471 7.914-.779-10.04 1.222-.704 8.279 5.722a6094.18 6094.18 0 01-4.601-7.84l1.222-.703 5.285 9.177-1.794 1.033-8.22-5.618.732 9.929-1.768 1.018-5.284-9.177zm-.615 2.679l-.99 1.136a25.688 25.688 0 00-.57-.199 3.796 3.796 0 00-.584-.092 4.618 4.618 0 00-.872.002c-.895.07-1.878.375-2.949.914-1.126.567-1.862 1.207-2.208 1.919-.263.546-.263 1.078-.002 1.596.144.286.336.491.578.616.233.129.508.175.826.138.322-.028.615-.08.878-.157.255-.072.559-.18.912-.324l1.514-.595a83.722 83.722 0 011.688-.649 6.179 6.179 0 011.073-.238c.389-.05.747-.029 1.074.064.653.186 1.142.6 1.466 1.243.485.965.408 1.9-.234 2.805-.543.789-1.48 1.518-2.811 2.188-2.259 1.139-4.155 1.298-5.687.48l.983-1.116a5.285 5.285 0 001.973.215c.644-.055 1.363-.283 2.158-.684a7.745 7.745 0 001.045-.627c.316-.215.609-.458.876-.727.259-.264.426-.556.501-.873a1.28 1.28 0 00-.11-.919 1.357 1.357 0 00-.458-.542 1.172 1.172 0 00-.658-.139c-.246.023-.474.06-.684.109a8.91 8.91 0 00-.757.264l-3.076 1.197c-1.032.396-1.926.511-2.682.343-.756-.168-1.326-.631-1.708-1.39a3.135 3.135 0 01-.339-1.207c-.028-.411.045-.856.218-1.335.177-.47.536-.959 1.075-1.466.544-.498 1.254-.967 2.129-1.408 1.179-.594 2.339-.96 3.479-1.097 1.14-.138 2.117.047 2.933.555zM147.436 36.287l1.557-.46c.098 2.34-1.21 4.24-3.924 5.694-1.085.581-2.14.92-3.166 1.017a5.201 5.201 0 01-2.923-.595c-.913-.498-1.658-1.284-2.234-2.36-.79-1.471-.92-2.921-.393-4.35.528-1.429 1.664-2.611 3.409-3.546 2.512-1.347 4.746-1.382 6.701-.104l-1.251 1.062a3.461 3.461 0 00-2.285-.579c-.83.06-1.66.311-2.488.755a7.169 7.169 0 00-1.179.786 4.99 4.99 0 00-.958 1.007 4.17 4.17 0 00-.597 1.205c-.126.42-.158.89-.094 1.411.064.522.241 1.052.529 1.59.671 1.25 1.591 1.983 2.76 2.196 1.165.204 2.408-.048 3.73-.757 1.877-1.007 2.813-2.33 2.806-3.972zm.472-8.48l1.371-.643 2.744 5.854c.17.362.343.661.521.899.177.237.367.407.571.51.199.095.349.157.451.187.102.029.249.06.441.091.878.108 1.847-.087 2.907-.584a7.56 7.56 0 00.557-.294c.205-.13.49-.323.854-.582.364-.26.661-.57.889-.93a2.05 2.05 0 00.344-1.106c-.008-.394-.154-.894-.439-1.5l-2.75-5.868 1.372-.643 2.706 5.772c.36.77.55 1.41.568 1.92.08 1.797-1.121 3.276-3.602 4.439a9.113 9.113 0 01-.678.284 6.956 6.956 0 01-.987.297 6.552 6.552 0 01-1.227.21 4.6 4.6 0 01-1.279-.112c-.471-.11-.891-.3-1.26-.569-.51-.38-.987-1.045-1.433-1.996l-2.641-5.636zm15.222 2.258l1.075-1.056c.238.108.423.19.553.244a4.728 4.728 0 001.445.203c.897 0 1.9-.227 3.011-.681 1.166-.477 1.95-1.057 2.351-1.74.304-.524.347-1.055.127-1.592a1.34 1.34 0 00-.529-.658c-.222-.147-.493-.215-.812-.203a4.536 4.536 0 00-.888.088c-.26.052-.571.136-.934.252l-1.556.475c-.826.252-1.404.423-1.734.515a6.18 6.18 0 01-1.088.154c-.392.02-.747-.03-1.065-.148-.637-.236-1.092-.688-1.365-1.354-.409-1-.258-1.926.452-2.778.603-.744 1.594-1.398 2.973-1.962 2.342-.958 4.244-.97 5.707-.034l-1.067 1.036a5.284 5.284 0 00-1.95-.369c-.646.005-1.381.176-2.204.513a7.801 7.801 0 00-1.091.544c-.333.19-.643.409-.931.656a1.861 1.861 0 00-.567.832c-.103.302-.091.61.038.924.102.25.24.442.414.577.179.12.394.184.645.19a4.97 4.97 0 00.69-.056c.21-.043.468-.11.776-.204l3.16-.953c1.059-.314 1.96-.359 2.701-.132.74.226 1.272.732 1.594 1.52.166.406.248.816.243 1.228-.004.413-.111.85-.321 1.315-.213.455-.609.914-1.187 1.377-.581.454-1.325.866-2.232 1.238-1.222.5-2.406.773-3.554.822-1.147.048-2.107-.213-2.88-.783zm18.62-14.813l-4.083 1.456 3.134 8.788-1.413.504-3.134-8.788-4.069 1.451-.423-1.187 9.565-3.41.423 1.186zm15.95-.471c.445 1.495.272 2.897-.517 4.207-.78 1.307-2.133 2.247-4.059 2.82-1.908.567-3.559.558-4.954-.029-1.389-.598-2.327-1.717-2.814-3.356-.263-.882-.33-1.723-.203-2.522.124-.81.405-1.514.842-2.113a6.58 6.58 0 011.656-1.588 7.982 7.982 0 012.212-1.034 7.938 7.938 0 012.341-.337 6.668 6.668 0 012.257.377c.729.242 1.383.669 1.961 1.28.578.61 1.004 1.375 1.278 2.295zm-1.495.288a4.215 4.215 0 00-.682-1.346 4.116 4.116 0 00-1.162-1.063c-.468-.31-1.06-.493-1.776-.551-.716-.059-1.501.04-2.354.293a6.255 6.255 0 00-1.706.79 4.976 4.976 0 00-1.262 1.173 3.571 3.571 0 00-.665 1.607c-.089.61-.03 1.266.178 1.965.374 1.256 1.094 2.116 2.161 2.581 1.067.465 2.348.475 3.843.03.834-.248 1.528-.58 2.083-.995.552-.425.942-.885 1.17-1.38a4.254 4.254 0 00.377-1.521 4.77 4.77 0 00-.205-1.583zm18.808.895l-1.388.323-1.987-8.87-2.162 9.835-1.373.32-6.268-7.874c1.363 5.637 2.075 8.583 2.133 8.836l-1.373.32-2.4-10.315 2.016-.469 6.241 7.758 2.174-9.716 1.987-.463 2.4 10.315zm4.276-.712l-1.503.285-1.971-10.405 1.503-.285 1.971 10.405zm13.243-2.147l-10.45 1.617-.193-1.246 6.969-9.213-7.575 1.172-.197-1.275 9.679-1.498.191 1.23-6.986 9.202 8.361-1.293.201 1.304zm14.289-1.473l-1.731.175-1.547-2.466-6.476.658-1.02 2.727-1.686.171 4.391-11.09 1.597-.162 6.472 9.987zm-4.042-3.434l-3.113-4.961-2.095 5.49 5.208-.53zm14.069-6.386l-4.329.23.494 9.317-1.498.079-.494-9.317-4.314.229-.067-1.258 10.141-.538.067 1.258zm4.168 9.283l-1.529.036-.248-10.587 1.529-.036.248 10.587zm15.682-5.021c-.026 1.56-.613 2.845-1.761 3.855-1.137 1.011-2.711 1.5-4.72 1.465-1.99-.034-3.562-.541-4.715-1.52-1.143-.99-1.7-2.34-1.671-4.05.015-.92.205-1.742.567-2.466.363-.734.843-1.32 1.44-1.76a6.58 6.58 0 012.058-1.015 7.974 7.974 0 012.421-.319 7.93 7.93 0 012.333.385 6.67 6.67 0 012.038 1.04c.622.45 1.117 1.054 1.484 1.81.367.757.543 1.615.526 2.575zm-1.512-.176a4.206 4.206 0 00-.244-1.49 4.119 4.119 0 00-.787-1.363c-.353-.436-.862-.79-1.527-1.061-.666-.272-1.443-.415-2.333-.43a6.246 6.246 0 00-1.865.238 4.964 4.964 0 00-1.558.739 3.572 3.572 0 00-1.117 1.33c-.27.556-.411 1.199-.423 1.929-.023 1.31.405 2.347 1.282 3.112.877.765 2.095 1.161 3.655 1.188.87.014 1.632-.092 2.286-.321.654-.24 1.164-.56 1.531-.964.367-.414.64-.86.818-1.337a4.74 4.74 0 00.282-1.57zm15.292 6.314l-1.466-.106-7.643-9.334c-.363 5.307-.563 8.22-.601 8.739l-1.436-.104.763-10.562 1.541.111 7.584 9.315c.364-5.458.559-8.366.585-8.725l1.436.104-.763 10.562zm3.818-1.137l1.625.183-.214 1.893c-.065.576-.242.99-.532 1.238-.28.25-.708.348-1.286.293l.093-.82c.262 0 .443-.046.543-.135.111-.088.181-.261.21-.52l.05-.447-.67-.075.181-1.61zm18.485 1.082l1.515.584c-1.35 1.916-3.544 2.623-6.583 2.123-1.214-.2-2.257-.575-3.129-1.124a5.202 5.202 0 01-1.955-2.253c-.421-.95-.532-2.028-.334-3.232.272-1.648 1.052-2.877 2.341-3.688 1.289-.812 2.91-1.056 4.864-.734 2.812.463 4.604 1.797 5.376 4.002l-1.64.08a3.46 3.46 0 00-1.458-1.852c-.695-.46-1.506-.765-2.433-.918a7.18 7.18 0 00-1.413-.096 4.996 4.996 0 00-1.374.214 4.175 4.175 0 00-1.207.592c-.356.255-.668.61-.935 1.062-.267.453-.45.98-.549 1.582-.231 1.4.052 2.542.849 3.423.799.872 1.939 1.43 3.419 1.673 2.101.347 3.65-.133 4.646-1.438zm16.155 1.509c-.338 1.523-1.169 2.666-2.495 3.427-1.316.764-2.956.928-4.918.494-1.943-.43-3.382-1.24-4.317-2.43-.923-1.198-1.199-2.632-.83-4.302.199-.898.548-1.666 1.048-2.303.501-.647 1.089-1.126 1.762-1.438a6.576 6.576 0 012.219-.584 7.975 7.975 0 012.436.17 7.95 7.95 0 012.21.843 6.672 6.672 0 011.789 1.425c.52.566.884 1.256 1.093 2.07.209.815.21 1.69.003 2.628zm-1.447-.474a4.2 4.2 0 00.057-1.508 4.123 4.123 0 00-.499-1.493c-.259-.498-.687-.946-1.285-1.345-.598-.398-1.331-.694-2.2-.886a6.246 6.246 0 00-1.875-.138 4.956 4.956 0 00-1.673.413 3.564 3.564 0 00-1.361 1.081c-.375.49-.642 1.092-.799 1.805-.283 1.279-.072 2.38.635 3.306.707.924 1.822 1.555 3.345 1.892.85.188 1.618.235 2.304.141.689-.103 1.253-.316 1.693-.639a4.224 4.224 0 001.068-1.146 4.77 4.77 0 00.59-1.483zm14.05 9.366l-1.414-.401-5.594-10.689c-1.43 5.124-2.216 7.936-2.358 8.437l-1.386-.393 2.886-10.189 1.487.421 5.54 10.658c1.462-5.271 2.242-8.08 2.34-8.426l1.385.392-2.886 10.19zm14.261-5.02l-4.106-1.391-2.996 8.836-1.42-.482 2.995-8.836-4.091-1.387.405-1.193 9.617 3.26-.404 1.194zm9.022 13.492l-1.832-.71-1.805-5.256-4.767-1.852-1.538 3.957-1.412-.549 3.835-9.871 6.725 2.613c.662.257 1.164.51 1.507.762.593.434.977.964 1.152 1.59.175.626.131 1.28-.134 1.96-.485 1.249-1.344 1.886-2.577 1.911-.332 0-.725-.051-1.18-.152l2.026 5.598zm-7.967-8.984l4.879 1.896c.345.134.628.233.85.298.231.068.508.1.831.097a1.79 1.79 0 00.881-.237c.354-.195.615-.507.782-.935.137-.354.178-.709.123-1.063-.056-.408-.214-.721-.472-.94-.249-.214-.602-.41-1.059-.588l-5.425-2.107-1.39 3.579zm22.855 10.079c-.643 1.421-1.692 2.368-3.147 2.84-1.445.476-3.083.3-4.914-.53-1.812-.82-3.054-1.91-3.723-3.267-.657-1.362-.632-2.822.073-4.38.38-.838.88-1.517 1.5-2.038.624-.53 1.297-.878 2.02-1.044a6.583 6.583 0 012.292-.115 7.973 7.973 0 012.348.669c.738.334 1.401.76 1.99 1.28a6.668 6.668 0 011.457 1.763c.392.66.607 1.41.643 2.25.037.84-.143 1.698-.539 2.572zm-1.318-.761c.211-.465.333-.953.367-1.464a4.118 4.118 0 00-.181-1.564c-.15-.54-.477-1.067-.98-1.58-.503-.514-1.16-.954-1.971-1.321a6.241 6.241 0 00-1.806-.522 4.964 4.964 0 00-1.723.06 3.57 3.57 0 00-1.554.778c-.468.402-.852.936-1.154 1.601-.54 1.194-.56 2.316-.058 3.366.501 1.05 1.462 1.897 2.883 2.54.793.36 1.534.564 2.225.614.696.04 1.292-.052 1.789-.277a4.25 4.25 0 001.281-.902c.357-.376.651-.82.882-1.33zm9.458 10.747l-7.599-3.887 4.824-9.428 1.335.683-4.236 8.28 6.263 3.204-.587 1.148zM133.887 485.188l1.24.703-4.553 7.868 8.257-5.765 1.226.696-.731 10.038c2.82-5.068 4.295-7.716 4.423-7.942l1.226.696-5.228 9.21-1.8-1.022.671-9.934-8.185 5.668-1.774-1.007 5.228-9.209zm-7.67 7.649l-1.272-.823 3.511-5.429c.217-.336.379-.642.486-.918a1.69 1.69 0 00.131-.755 3.287 3.287 0 00-.082-.481 4.204 4.204 0 00-.155-.422c-.375-.802-1.054-1.521-2.036-2.156a7.45 7.45 0 00-.545-.317 19.56 19.56 0 00-.947-.415 3.307 3.307 0 00-1.26-.262c-.427-.002-.8.096-1.119.295-.33.215-.677.604-1.04 1.167l-3.519 5.441-1.272-.822 3.461-5.353c.462-.714.904-1.214 1.327-1.5 1.481-1.02 3.372-.785 5.673.702.201.131.402.272.601.425.196.138.454.365.775.68.326.306.602.615.828.928.227.313.421.695.582 1.145.156.458.218.915.186 1.37-.052.633-.363 1.391-.934 2.272l-3.38 5.228zm-13.021-21.669l6.947 4.959-6.154 8.619-1.22-.872 5.403-7.569-5.725-4.087.749-1.05zm-13.956.932l3.419 2.665 5.735-7.359 1.183.922-5.735 7.359 3.407 2.656-.774.994-8.01-6.243.775-.994zm2.26-10.31l1.173.981-6.792 8.125-1.174-.981 6.793-8.125zm-7.265-1.135l3.567 3.099-.807.928-3.567-3.099.807-.928zm1.535-3.795l-7.214 7.753-4.865-4.527c-1.244-1.158-1.785-2.31-1.62-3.455a3.15 3.15 0 01.84-1.696c.702-.754 1.515-1.084 2.438-.99a3.07 3.07 0 011.05.302c.34.164.61.328.815.49.204.163.478.404.822.724l3.722 3.465 2.892-3.108 1.12 1.042zm-4.86 2.998l-3.579-3.331a9.897 9.897 0 00-.646-.561 2.775 2.775 0 00-.682-.368 1.772 1.772 0 00-.853-.096c-.401.049-.769.254-1.103.612-.306.33-.474.693-.502 1.09-.017.298.05.6.203.906.145.299.294.527.449.684.147.165.364.38.65.645l3.458 3.219 2.606-2.8zm-12.635-20.185l1.215 1.246-.97 2.746 4.543 4.663 2.77-.897 1.182 1.214-11.416 3.457-1.12-1.15 3.796-11.279zm-.175 5.302l-1.95 5.522 5.603-1.773-3.653-3.749zm-16.223-7.993l8.423-.244 3.08-2.699.979 1.116-3.102 2.72-1.38 8.232-1.276-1.455 1.203-6.501-6.662.274-1.266-1.443zm5.139-8.007l-1.032-1.269 1.479-1.201c.45-.366.866-.536 1.247-.511.375.017.75.248 1.123.692l-.64.52c-.188-.183-.349-.278-.483-.284-.14-.015-.312.06-.514.224l-.349.284.426.523-1.257 1.022zM54.98 410.283l.836 1.154-7.407 5.271 9.905-1.82.827 1.142-4.829 8.83c4.669-3.442 7.108-5.24 7.319-5.392l.827 1.142-8.578 6.211-1.214-1.677 4.732-8.759-9.799 1.762-1.196-1.653 8.577-6.211zm-7.875-12.375l.935 1.467-1.507 2.491 3.5 5.489 2.895-.316.91 1.43-11.88 1.065-.863-1.354 6.01-10.272zm-1.25 5.155l-3.03 5.011 5.845-.597-2.815-4.414zm-4.985-16.22l.97 1.709-1.922 5.213 2.525 4.449 3.692-2.096.748 1.318-9.21 5.227-3.562-6.274c-.35-.618-.579-1.132-.686-1.543-.185-.711-.148-1.365.112-1.961.26-.595.707-1.074 1.342-1.434 1.165-.661 2.234-.612 3.205.147.258.21.53.498.818.864l1.968-5.619zm.498 11.998l-2.585-4.553a10.667 10.667 0 00-.47-.767c-.136-.199-.33-.4-.582-.601a1.782 1.782 0 00-.833-.373c-.398-.073-.797.004-1.197.231a2.03 2.03 0 00-.767.746c-.214.351-.29.694-.228 1.026.058.324.207.699.45 1.125l2.872 5.062 3.34-1.896zm-6.424-23.844l.901 1.796-2.948 6.833 3.632 1.853 2.936-1.473.652 1.3-9.465 4.75-.666-1.327 5.041-2.53-8.465-4.295-.989-1.97 5.968 2.996 3.403-7.933zm-4.407-10.039l4.12 9.282-9.68 4.295-3.961-8.925 1.193-.529 3.352 7.554 2.88-1.278-3.268-7.362 1.152-.511 3.267 7.362 3.263-1.448-3.51-7.911 1.192-.529zm-12.68-6.793l1.584 4.035 8.685-3.409.548 1.396-8.685 3.409 1.579 4.022-1.173.46-3.71-9.453 1.172-.46zm8.33-4.438l-10.017 3.436-2.156-6.286c-.552-1.608-.485-2.878.2-3.81.384-.513.898-.88 1.54-1.1.975-.334 1.847-.242 2.617.276.302.203.564.457.785.762.22.305.383.577.486.816.103.24.23.582.383 1.026l1.65 4.81 4.015-1.377.497 1.447zm-5.699.353l-1.586-4.625a9.72 9.72 0 00-.306-.799 2.79 2.79 0 00-.428-.647 1.79 1.79 0 00-.706-.487c-.378-.145-.798-.138-1.262.021-.425.146-.744.387-.957.724a1.78 1.78 0 00-.248.894c-.013.332.012.604.074.815.052.215.141.507.268.876l1.533 4.469 3.618-1.241zm-.892-21.13l2.414 8.186-10.157 2.996-.425-1.439 8.92-2.631-1.99-6.747 1.238-.365zm-3.238-13.247l.413 1.69-2.23 1.872 1.545 6.324 2.841.634.402 1.647-11.59-2.821-.38-1.559 8.999-7.787zm-2.844 4.477l-4.484 3.767 5.726 1.319-1.242-5.086zm-2.459-15.429l.032-1.624c2.262.615 3.676 2.436 4.242 5.463.226 1.209.23 2.318.011 3.325a5.198 5.198 0 01-1.45 2.606c-.75.72-1.725 1.193-2.925 1.417-1.641.307-3.063-.007-4.265-.942-1.203-.935-1.986-2.375-2.35-4.321-.524-2.802.118-4.941 1.928-6.419l.634 1.514a3.458 3.458 0 00-1.243 2.003c-.195.809-.205 1.676-.033 2.6.09.482.221.935.392 1.361a5 5 0 00.67 1.218c.284.374.607.685.969.932.361.248.8.42 1.317.517a4.529 4.529 0 001.674-.023c1.396-.261 2.372-.917 2.929-1.967.546-1.049.682-2.31.406-3.784-.392-2.094-1.371-3.386-2.938-3.876zm1.318-13.694l1.392 10.06-10.49 1.451-1.339-9.673 1.293-.179 1.133 8.187 3.12-.432-1.104-7.979 1.248-.172 1.104 7.979 3.536-.489-1.185-8.574 1.292-.179zm-1.816-2.444l-.17-1.626 1.894-.199c.577-.061 1.018.024 1.324.253.304.22.492.617.562 1.193l-.82.086c-.057-.255-.14-.423-.25-.502-.109-.089-.293-.12-.552-.093l-.447.047.07.672-1.611.169zm.217-20.545l.092 1.737-2.538 1.427.345 6.501 2.675 1.15.09 1.692-10.866-4.921-.085-1.603 10.287-5.983zm-3.625 3.872l-5.105 2.87 5.383 2.358-.278-5.228zm3.686-4.724l-10.59.014-.009-6.645c-.002-1.7.471-2.881 1.42-3.542a3.152 3.152 0 011.815-.542c1.03-.002 1.825.367 2.386 1.107.22.289.386.614.496.974.11.36.176.67.197.93.02.26.03.625.031 1.095l.007 5.085 4.245-.006.002 1.53zm-5.507-1.508l-.007-4.89c0-.35-.01-.635-.03-.855a2.773 2.773 0 00-.197-.749 1.78 1.78 0 00-.51-.69c-.311-.259-.711-.389-1.201-.388-.45 0-.83.126-1.14.376-.23.191-.404.446-.524.766-.12.31-.184.575-.194.795-.02.22-.029.525-.028.915l.006 4.725 3.825-.005zm5.562-10.213l-10.58-.459.287-6.638c.073-1.699.599-2.857 1.576-3.475a3.148 3.148 0 011.837-.461c1.03.044 1.807.448 2.335 1.212.207.299.358.631.452.995.095.365.146.677.155.938.009.26.003.626-.018 1.095l-.22 5.08 4.242.184-.067 1.529zm-5.435-1.752l.212-4.886c.015-.349.017-.634.007-.855a2.78 2.78 0 00-.163-.758 1.776 1.776 0 00-.48-.711c-.298-.273-.692-.421-1.181-.442-.45-.019-.835.089-1.156.326a1.771 1.771 0 00-.557.741c-.134.305-.21.567-.23.786-.029.219-.052.523-.069.913l-.204 4.72 3.821.166z" fill="#fff"/><defs><clipPath id="clip0_171_184"><path fill="#fff" transform="rotate(-60 130.515 54.512)" d="M0 0h29.837v29.837H0z"/></clipPath><clipPath id="clip1_171_184"><path fill="#fff" transform="rotate(60 148.192 485.566)" d="M0 0h29.837v29.837H0z"/></clipPath><clipPath id="clip2_171_184"><path fill="#fff" transform="rotate(-180 139.71 270.534)" d="M0 0h29.837v29.837H0z"/></clipPath></defs></svg>