<svg width="530" height="542" fill="none" xmlns="http://www.w3.org/2000/svg"><path fill-rule="evenodd" clip-rule="evenodd" d="M407 496.256a261.948 261.948 0 0068.659-64.799l-.871-.504A260.916 260.916 0 01407 495.063v1.193zm-280 .733a260.9 260.9 0 01-71.094-66.453l-.87.504A261.898 261.898 0 00127 498.171v-1.182zM236 18.652v1.006a257.846 257.846 0 00-65 16.086V34.67a258.844 258.844 0 0165-16.018zM6.232 303h1.005a257.866 257.866 0 0019.704 76.796l-.871.505A258.865 258.865 0 016.232 303zM294 19.547v-1.006a258.777 258.777 0 0180 22.06v1.101a257.778 257.778 0 00-80-22.155zM523.342 307a257.82 257.82 0 01-19.488 73.272l.872.504A258.786 258.786 0 00524.348 307h-1.006z" fill="#3A3A3A"/><g clip-path="url(#clip0_321_11004)"><path fill-rule="evenodd" clip-rule="evenodd" d="M493.098 393.486c-5.27-.584-10.631 1.919-13.452 6.804-3.803 6.587-1.546 15.009 5.041 18.812a13.749 13.749 0 005.849 1.809c5.109.382 10.229-2.116 12.962-6.85 3.803-6.586 1.546-15.008-5.04-18.811a13.74 13.74 0 00-5.36-1.764zm-8.985 26.61c-7.135-4.12-9.58-13.244-5.461-20.379 4.12-7.136 13.244-9.581 20.379-5.461 7.136 4.12 9.581 13.244 5.461 20.379-4.12 7.135-13.244 9.58-20.379 5.461z" fill="#3A3A3A"/><path d="M495.589 400.219l-7.46 12.92m0 0l7.839-2.1m-7.839 2.1l-2.1-7.838" stroke="#E2E2E2" stroke-width="1.721"/></g><g clip-path="url(#clip1_321_11004)"><path fill-rule="evenodd" clip-rule="evenodd" d="M51.148 398.027a13.81 13.81 0 011.63 2.263c3.802 6.587 1.546 15.009-5.04 18.812-5.764 3.327-12.933 2.015-17.182-2.777a13.887 13.887 0 01-1.63-2.264c-3.803-6.586-1.546-15.009 5.04-18.811 5.763-3.328 12.932-2.016 17.182 2.777zm-17.756-3.771c7.136-4.12 16.26-1.675 20.38 5.46 4.12 7.136 1.674 16.26-5.461 20.379-7.136 4.12-16.26 1.675-20.38-5.46-4.119-7.136-1.674-16.26 5.461-20.379z" fill="#3A3A3A"/><path d="M44.868 414.133l-7.459-12.92m0 0l-2.1 7.838m2.1-7.838l7.838 2.1" stroke="#E2E2E2" stroke-width="1.721"/></g><g clip-path="url(#clip2_321_11004)"><path fill-rule="evenodd" clip-rule="evenodd" d="M279.269 16.03l.001-.178c0-7.606-6.165-13.771-13.77-13.771-6.705 0-12.291 4.792-13.52 11.138a13.845 13.845 0 00-.251 2.633c0 7.605 6.165 13.77 13.771 13.77 6.654 0 12.207-4.72 13.491-10.995.172-.84.267-1.709.278-2.597zm1.149-.178c0 8.24-6.679 14.918-14.918 14.918-8.24 0-14.919-6.679-14.919-14.918 0-8.24 6.679-14.919 14.919-14.919 8.239 0 14.918 6.68 14.918 14.919z" fill="#3A3A3A"/><path d="M257.466 15.852h14.919m0 0l-5.738-5.738m5.738 5.738l-5.738 5.738" stroke="#E2E2E2" stroke-width="1.721"/></g><path d="M11.292 275.515l.03 1.47-8.595 8.466c5.318-.125 8.237-.192 8.757-.203l.029 1.44-10.588.209-.03-1.545 8.58-8.406c-5.468.138-8.382.211-8.742.218l-.029-1.44 10.588-.209zM2.35 263.504l-.24 7.932 3.39.102.23-7.631 1.245.037-.231 7.632 4.648.14-.045 1.485-10.585-.321.284-9.415 1.305.039zm.68-10.63l-.298 4.325 9.308.64-.102 1.496-9.309-.639-.296 4.31-1.257-.087.696-10.131 1.257.086zm-.556-6.931l.202-1.502 6.408.861c.396.054.742.07 1.037.049a1.69 1.69 0 00.739-.203 3.3 3.3 0 00.4-.279c.08-.07.186-.177.316-.321.566-.681.927-1.601 1.083-2.761.024-.178.042-.387.054-.628.002-.242-.007-.586-.028-1.033a3.296 3.296 0 00-.3-1.251 2.05 2.05 0 00-.744-.887c-.336-.207-.835-.354-1.5-.444l-6.422-.863.202-1.501 6.318.849c.843.113 1.483.3 1.923.561 1.553.905 2.147 2.715 1.782 5.431a9.212 9.212 0 01-.128.724 6.907 6.907 0 01-.284.991 6.51 6.51 0 01-.487 1.145c-.187.339-.45.677-.787 1.015a3.465 3.465 0 01-1.16.752c-.596.222-1.413.264-2.454.124l-6.17-.829zm4.949-22.978l-.79 4.263 9.174 1.698-.273 1.475-9.174-1.698-.786 4.247-1.24-.229 1.85-9.985 1.239.229zm10.004-1.933l-.324 1.496-10.35-2.243.324-1.495 10.35 2.242zm2.851-11.79l-2.06 8.282-10.276-2.554.361-1.456 9.026 2.244 1.697-6.828 1.252.312zm.955-3.193l-.413 1.473-10.196-2.863.413-1.473 10.196 2.863zm-5.459-14.02l-1.297 4.136 8.903 2.791-.449 1.432-8.902-2.792-1.293 4.123-1.202-.377 3.038-9.69 1.202.377zm3.556-13.45l4.242 7.282 3.843 1.413-.512 1.394-3.872-1.424-7.89 2.724.668-1.816 6.284-2.052-3.426-5.719.662-1.802zm9.251 1.244l.615-1.515 1.765.717c.538.218.887.5 1.049.847.165.337.143.776-.066 1.317l-.764-.311c.07-.252.076-.438.017-.559-.055-.131-.203-.245-.444-.343l-.417-.169-.254.625-1.5-.609zm9.296-16.916l-.826 1.783-5.359 1.468-2.15 4.641 3.85 1.785-.637 1.374-9.608-4.453 3.034-6.546c.299-.644.584-1.129.856-1.455.471-.564 1.025-.914 1.66-1.049.636-.135 1.285-.049 1.948.258 1.215.563 1.797 1.461 1.744 2.693a5.576 5.576 0 01-.227 1.168l5.715-1.667zm-9.472 7.382l2.202-4.75a10.9 10.9 0 00.35-.829c.084-.226.134-.501.15-.823a1.787 1.787 0 00-.18-.894c-.172-.367-.466-.646-.884-.84a2.02 2.02 0 00-1.052-.19c-.411.03-.734.167-.968.411-.23.235-.448.575-.654 1.02l-2.448 5.28 3.484 1.615zm14.757-17.408l-4.707 8.999-9.384-4.908 4.526-8.653 1.156.605-3.83 7.323 2.791 1.46 3.733-7.137 1.117.584-3.733 7.137 3.163 1.655 4.011-7.669 1.157.604zm-2.468-16.76l6.615 9.661-.765 1.307-11.708-.961.841-1.437 9.824.884-5.64-8.03.833-1.424zm15.336-4.092l-5.54 8.51-8.875-5.778 5.328-8.184 1.093.712-4.51 6.927 2.64 1.718 4.396-6.75 1.056.687-4.396 6.751 2.992 1.948 4.723-7.253 1.093.712zm8.333-11.476l-.868 1.187-11.968 1.52c4.305 3.126 6.667 4.842 7.087 5.149l-.85 1.162-8.547-6.254.913-1.247 11.92-1.481a5049.051 5049.051 0 01-7.083-5.128l.85-1.162 8.546 6.254zm-6.466-8.887l.96-1.171 5.002 4.096c.309.254.595.449.857.587.263.137.508.209.736.214.22 0 .382-.009.487-.027.105-.017.25-.053.437-.107.84-.282 1.63-.876 2.37-1.781.115-.139.24-.308.377-.507.129-.204.302-.502.518-.893.218-.391.351-.799.401-1.223a2.051 2.051 0 00-.167-1.145c-.177-.352-.525-.74-1.043-1.165l-5.013-4.107.96-1.171 4.932 4.039c.657.539 1.105 1.035 1.341 1.487.847 1.586.403 3.439-1.334 5.558a9.207 9.207 0 01-.489.55c-.16.179-.414.41-.762.694-.34.289-.68.529-1.016.719a4.58 4.58 0 01-1.202.45 3.454 3.454 0 01-1.383.031c-.623-.123-1.341-.517-2.153-1.183l-4.816-3.945zM81.3 100.722l-6.8 7.543-7.866-7.091 6.538-7.253.97.874-5.534 6.139 2.34 2.109 5.392-5.983.936.843-5.393 5.984 2.652 2.39 5.795-6.429.97.874zm2.275-5.417l.602-1.381c.262.01.463.016.605.018a4.669 4.669 0 001.415-.352c.832-.335 1.678-.92 2.538-1.758.903-.878 1.413-1.71 1.53-2.493.086-.6-.074-1.108-.478-1.523-.223-.23-.469-.367-.737-.413-.261-.053-.537-.015-.829.116a4.536 4.536 0 00-.79.413c-.222.146-.479.34-.772.584l-1.266 1.022c-.672.543-1.144.918-1.415 1.126a6.164 6.164 0 01-.952.55 2.65 2.65 0 01-1.043.261c-.68.02-1.27-.23-1.772-.745-.753-.774-.96-1.69-.62-2.745.28-.916.955-1.893 2.023-2.932 1.813-1.765 3.573-2.487 5.28-2.167l-.602 1.36c-.7.012-1.349.141-1.946.388-.597.246-1.215.68-1.853 1.3-.308.3-.577.604-.808.912-.237.301-.443.62-.617.957-.168.33-.24.658-.215.984.017.318.144.6.38.843.189.193.389.32.6.38.212.045.435.023.67-.066.227-.096.433-.199.619-.31a8.64 8.64 0 00.643-.479l2.574-2.065c.865-.688 1.683-1.066 2.455-1.133.772-.068 1.454.203 2.047.812.306.316.535.665.686 1.05.15.383.215.83.193 1.338-.028.502-.223 1.076-.585 1.722-.37.638-.905 1.299-1.608 1.982-.946.921-1.942 1.618-2.988 2.092s-2.034.591-2.964.352zm11.592-20.598l-3.236 2.885 6.208 6.964-1.12.998-6.208-6.964-3.225 2.875-.838-.94 7.58-6.758.839.94zm16.372-1.284l-1.527 1.236-5.458-1.043-3.975 3.22 2.672 3.298-1.178.954-6.664-8.23 5.607-4.54c.552-.448 1.022-.757 1.41-.93.671-.299 1.322-.37 1.952-.21.631.158 1.175.521 1.635 1.089.843 1.041.97 2.103.379 3.186a5.51 5.51 0 01-.718.948l5.865 1.022zm-11.755 2.454l4.069-3.294c.287-.233.514-.43.68-.59.174-.166.34-.39.498-.673.159-.296.236-.59.231-.882.007-.405-.134-.786-.424-1.143a2.022 2.022 0 00-.861-.635c-.382-.153-.732-.172-1.05-.057-.31.11-.655.319-1.036.627l-4.523 3.663 2.416 2.984zm20.879-9.112l-8.187 6.008-6.265-8.538 7.873-5.777.772 1.052-6.664 4.89 1.864 2.54 6.494-4.766.746 1.016-6.494 4.765 2.112 2.879 6.977-5.12.772 1.051zm11.777-7.818l-1.45.962-2.517-1.463-5.427 3.596.367 2.888-1.413.936-1.274-11.86 1.338-.886 10.376 5.827zm-5.176-1.158l-5.063-2.943.699 5.835 4.364-2.892zm18.839-6.725l-1.235.712-4.471-7.916.779 10.041-1.222.704-8.279-5.722a3983.37 3983.37 0 014.6 7.84l-1.221.703-5.285-9.177 1.794-1.033 8.22 5.618-.732-9.93 1.768-1.017 5.284 9.177zm.615-2.679l.99-1.136c.246.088.436.155.57.2a4.715 4.715 0 001.456.09c.895-.07 1.878-.376 2.949-.915 1.126-.567 1.862-1.207 2.208-1.919.263-.546.263-1.078.002-1.596-.144-.286-.337-.491-.578-.616-.233-.129-.509-.175-.826-.138-.322.028-.615.08-.878.157-.255.072-.559.18-.912.324l-1.514.595c-.804.316-1.367.532-1.689.65a6.155 6.155 0 01-1.072.237c-.389.05-.747.03-1.074-.064-.653-.186-1.142-.6-1.466-1.243-.486-.965-.408-1.9.234-2.805.543-.789 1.48-1.518 2.811-2.188 2.259-1.139 4.155-1.298 5.687-.48l-.983 1.116a5.292 5.292 0 00-1.973-.215c-.644.055-1.363.283-2.158.684a7.84 7.84 0 00-1.045.627 5.923 5.923 0 00-.876.727 1.85 1.85 0 00-.501.873c-.079.31-.043.615.11.919.122.241.274.422.458.542.188.107.407.153.658.139.246-.023.474-.06.684-.11a8.52 8.52 0 00.757-.263l3.076-1.197c1.031-.396 1.926-.51 2.682-.343.756.168 1.325.631 1.708 1.39.198.393.311.795.339 1.207.028.411-.045.856-.218 1.335-.177.47-.536.959-1.075 1.466-.545.498-1.254.967-2.129 1.408-1.179.594-2.339.96-3.479 1.097-1.14.138-2.117-.047-2.933-.555zm235.846 457.328l-1.558.461c-.097-2.342 1.211-4.24 3.925-5.695 1.084-.582 2.14-.92 3.166-1.017a5.205 5.205 0 012.923.595c.913.497 1.658 1.284 2.234 2.359.789 1.472.92 2.922.393 4.351-.528 1.429-1.664 2.611-3.409 3.546-2.512 1.347-4.746 1.381-6.702.104l1.252-1.063c.689.46 1.45.653 2.285.58.83-.06 1.66-.312 2.488-.756a7.13 7.13 0 001.179-.785c.359-.283.678-.619.958-1.007.271-.383.47-.785.596-1.205.127-.419.159-.89.094-1.412a4.542 4.542 0 00-.528-1.589c-.671-1.251-1.591-1.983-2.76-2.196-1.165-.204-2.408.048-3.73.757-1.877 1.006-2.813 2.331-2.806 3.972zm-.472 8.48l-1.372.643-2.743-5.854a5.155 5.155 0 00-.521-.899 1.695 1.695 0 00-.571-.511 3.47 3.47 0 00-.451-.186 4.077 4.077 0 00-.441-.091c-.878-.108-1.847.087-2.907.583a8.002 8.002 0 00-.558.295c-.204.129-.489.323-.853.582a3.286 3.286 0 00-.889.93c-.229.362-.343.73-.344 1.106.008.394.154.894.438 1.501l2.75 5.867-1.371.643-2.706-5.772c-.36-.77-.55-1.41-.568-1.921-.08-1.796 1.121-3.275 3.602-4.438.217-.102.443-.196.678-.284.221-.093.551-.192.987-.298a6.56 6.56 0 011.227-.21c.385-.026.811.012 1.279.113.471.11.891.3 1.26.569.509.38.987 1.045 1.432 1.996l2.642 5.636zm-15.222-2.258l-1.075 1.056a24.34 24.34 0 00-.553-.244 4.039 4.039 0 00-.575-.138 4.714 4.714 0 00-.87-.065c-.897 0-1.9.227-3.011.681-1.166.477-1.95 1.057-2.351 1.74-.304.524-.347 1.055-.127 1.592.121.296.298.515.529.658.222.147.493.215.812.203.323-.003.619-.032.888-.088.26-.052.571-.136.934-.252l1.556-.475a85.493 85.493 0 011.734-.515 6.18 6.18 0 011.088-.154c.392-.019.747.03 1.065.148.637.236 1.092.688 1.365 1.354.409 1 .258 1.926-.452 2.778-.603.744-1.594 1.398-2.973 1.962-2.342.958-4.244.97-5.707.034l1.067-1.036a5.288 5.288 0 001.95.369c.646-.005 1.381-.176 2.204-.513a7.759 7.759 0 001.091-.544c.333-.19.643-.409.931-.656.278-.244.467-.521.567-.832.103-.302.091-.61-.038-.924a1.359 1.359 0 00-.414-.577 1.167 1.167 0 00-.645-.189 4.898 4.898 0 00-.69.055c-.21.043-.468.111-.776.204l-3.16.953c-1.059.314-1.96.359-2.701.132-.74-.226-1.272-.732-1.594-1.519a3.132 3.132 0 01-.243-1.229c.004-.413.111-.851.321-1.315.213-.455.609-.914 1.187-1.377.581-.454 1.325-.866 2.232-1.238 1.222-.5 2.406-.774 3.554-.822 1.147-.048 2.107.213 2.88.783zm-18.62 14.813l4.083-1.456-3.134-8.788 1.413-.504 3.134 8.788 4.069-1.451.423 1.187-9.565 3.41-.423-1.186zm-15.95.471c-.445-1.495-.273-2.898.517-4.207.78-1.307 2.133-2.247 4.059-2.82 1.908-.567 3.559-.558 4.954.028 1.388.599 2.327 1.718 2.814 3.357.263.882.33 1.723.203 2.522-.125.809-.405 1.514-.842 2.113a6.565 6.565 0 01-1.656 1.588 7.965 7.965 0 01-2.212 1.034 7.96 7.96 0 01-2.342.337 6.679 6.679 0 01-2.256-.377c-.729-.242-1.383-.669-1.961-1.279-.578-.611-1.004-1.376-1.278-2.296zm1.495-.288c.145.489.373.937.682 1.346.3.412.687.766 1.162 1.063.467.309 1.059.493 1.776.551.716.058 1.501-.039 2.354-.293a6.279 6.279 0 001.706-.789 4.985 4.985 0 001.262-1.174c.344-.457.566-.993.665-1.607.089-.61.03-1.266-.178-1.965-.374-1.256-1.094-2.116-2.161-2.581-1.067-.465-2.348-.475-3.843-.031-.834.249-1.528.58-2.083.996-.552.425-.942.885-1.17 1.381a4.251 4.251 0 00-.377 1.52 4.772 4.772 0 00.205 1.583zm-18.808-.895l1.387-.323 1.988 8.871 2.162-9.836 1.373-.32 6.268 7.874a4769.731 4769.731 0 01-2.134-8.836l1.374-.32 2.4 10.315-2.016.469-6.241-7.758-2.174 9.716-1.987.463-2.4-10.315zm-4.276.712l1.503-.285 1.971 10.405-1.503.285-1.971-10.405zm-13.243 2.147l10.45-1.617.193 1.246-6.969 9.213 7.575-1.172.197 1.275-9.679 1.498-.191-1.231 6.986-9.201-8.361 1.293-.201-1.304zm-14.289 1.473l1.731-.175 1.547 2.466 6.476-.658 1.02-2.727 1.686-.171-4.391 11.09-1.597.162-6.472-9.987zm4.042 3.434l3.113 4.961 2.095-5.49-5.208.529zm-14.069 6.386l4.329-.23-.494-9.316 1.498-.08.494 9.317 4.314-.229.067 1.258-10.141.538-.067-1.258zm-4.168-9.283l1.529-.036.248 10.587-1.529.036-.248-10.587zm-15.682 5.021c.026-1.56.613-2.845 1.761-3.855 1.137-1.011 2.711-1.499 4.72-1.465 1.99.034 3.562.541 4.715 1.521 1.143.989 1.7 2.339 1.671 4.049-.016.92-.205 1.742-.567 2.466-.363.734-.843 1.32-1.44 1.76a6.574 6.574 0 01-2.058 1.015 7.99 7.99 0 01-2.421.319 7.935 7.935 0 01-2.334-.385 6.654 6.654 0 01-2.037-1.04c-.623-.451-1.117-1.054-1.484-1.811-.368-.756-.543-1.614-.526-2.574zm1.512.176c-.009.51.073 1.006.244 1.489.162.483.424.938.787 1.364.353.436.862.79 1.527 1.061.666.272 1.443.415 2.333.43a6.257 6.257 0 001.865-.238 4.935 4.935 0 001.557-.739 3.558 3.558 0 001.118-1.331c.27-.555.411-1.198.423-1.928.023-1.309-.405-2.347-1.282-3.112-.877-.765-2.095-1.161-3.655-1.188-.87-.015-1.632.092-2.286.321-.654.239-1.165.561-1.531.964-.368.414-.64.86-.818 1.337a4.738 4.738 0 00-.282 1.57zm-15.292-6.314l1.466.106 7.642 9.334c.364-5.307.564-8.22.601-8.739l1.437.104-.763 10.562-1.541-.111-7.584-9.315c-.364 5.458-.559 8.366-.585 8.725l-1.436-.104.763-10.562zm-3.818 1.137l-1.625-.183.214-1.893c.065-.576.242-.989.532-1.238.279-.25.708-.348 1.286-.293l-.093.82c-.262.001-.443.046-.543.135-.111.088-.181.261-.21.52l-.05.447.67.075-.181 1.61zm-18.485-1.081l-1.515-.585c1.35-1.916 3.544-2.623 6.583-2.123 1.214.2 2.257.575 3.129 1.124a5.201 5.201 0 011.955 2.253c.421.951.532 2.028.334 3.232-.272 1.648-1.052 2.877-2.341 3.689-1.289.811-2.91 1.055-4.864.734-2.812-.464-4.604-1.798-5.376-4.003l1.64-.079a3.46 3.46 0 001.458 1.852c.695.459 1.506.765 2.433.917.484.08.955.112 1.413.096a4.977 4.977 0 001.374-.214 4.165 4.165 0 001.207-.592c.356-.255.668-.609.935-1.062.267-.453.45-.98.549-1.582.231-1.401-.052-2.542-.849-3.423-.799-.872-1.939-1.43-3.419-1.673-2.101-.347-3.65.133-4.646 1.439zm-16.155-1.51c.338-1.523 1.169-2.666 2.495-3.427 1.316-.764 2.956-.928 4.918-.494 1.943.43 3.382 1.24 4.317 2.431.923 1.197 1.199 2.631.83 4.301-.199.898-.548 1.666-1.048 2.303-.501.647-1.089 1.126-1.762 1.438a6.584 6.584 0 01-2.219.584 8 8 0 01-2.436-.17 7.939 7.939 0 01-2.21-.843 6.68 6.68 0 01-1.789-1.425c-.52-.566-.884-1.256-1.093-2.071-.209-.814-.21-1.69-.003-2.627zm1.447.474a4.2 4.2 0 00-.057 1.508c.062.505.229 1.003.499 1.493.259.498.687.946 1.285 1.345.598.398 1.331.694 2.2.886a6.214 6.214 0 001.875.138 4.927 4.927 0 001.673-.413 3.562 3.562 0 001.361-1.081c.375-.491.642-1.092.799-1.805.283-1.279.072-2.381-.635-3.305-.707-.925-1.822-1.556-3.345-1.893-.85-.188-1.618-.235-2.304-.141-.689.103-1.253.316-1.693.639a4.22 4.22 0 00-1.068 1.146 4.772 4.772 0 00-.59 1.483zm-14.05-9.365l1.414.4 5.594 10.689c1.43-5.124 2.216-7.936 2.358-8.437l1.386.393-2.886 10.189-1.487-.421-5.54-10.658c-1.462 5.271-2.242 8.08-2.34 8.426l-1.385-.392 2.886-10.189zm-14.261 5.019l4.106 1.391 2.995-8.836 1.421.482-2.996 8.836 4.092 1.387-.405 1.193-9.617-3.26.404-1.193zm-9.022-13.493l1.832.712 1.805 5.255 4.767 1.852 1.538-3.957 1.412.549-3.835 9.871-6.725-2.613c-.662-.257-1.164-.511-1.507-.762-.593-.434-.977-.964-1.152-1.59-.175-.626-.131-1.279.134-1.96.485-1.249 1.344-1.886 2.577-1.911.332 0 .725.051 1.18.152l-2.026-5.598zm7.967 8.985l-4.879-1.896a10.93 10.93 0 00-.85-.298 2.873 2.873 0 00-.831-.097c-.336.009-.63.088-.881.237-.354.195-.615.507-.782.935a2.038 2.038 0 00-.123 1.063c.056.408.214.721.472.939.249.215.602.411 1.059.589l5.425 2.107 1.39-3.579zm-22.856-10.079c.644-1.421 1.693-2.368 3.147-2.84 1.446-.476 3.084-.299 4.915.53 1.812.821 3.054 1.91 3.723 3.267.657 1.362.632 2.822-.073 4.38-.38.838-.88 1.517-1.5 2.038-.624.53-1.297.878-2.021 1.044a6.56 6.56 0 01-2.291.115 7.993 7.993 0 01-2.348-.668 7.973 7.973 0 01-1.99-1.28 6.67 6.67 0 01-1.457-1.764c-.392-.66-.607-1.411-.644-2.251-.036-.84.143-1.697.539-2.571zm1.319.761a4.186 4.186 0 00-.367 1.465 4.113 4.113 0 00.181 1.563c.15.541.477 1.067.98 1.581.503.513 1.16.953 1.971 1.32a6.211 6.211 0 001.805.522c.59.08 1.164.06 1.723-.06a3.566 3.566 0 001.555-.777c.468-.403.852-.937 1.154-1.602.54-1.193.56-2.315.058-3.366-.501-1.05-1.462-1.897-2.883-2.541-.793-.359-1.534-.563-2.226-.613-.695-.04-1.291.052-1.788.277a4.253 4.253 0 00-1.281.902 4.767 4.767 0 00-.882 1.329zm-9.458-10.747l7.599 3.887-4.824 9.428-1.335-.683 4.236-8.28-6.263-3.204.587-1.148zM396.112 56.812l-1.239-.703 4.553-7.868-8.257 5.765-1.227-.696.731-10.038a5912.15 5912.15 0 01-4.422 7.942l-1.226-.696 5.228-9.21 1.8 1.022-.672 9.934 8.186-5.668 1.774 1.007-5.229 9.21zm7.67-7.649l1.273.823-3.511 5.429a5.178 5.178 0 00-.486.918 1.69 1.69 0 00-.131.755c.025.218.052.379.082.481.029.102.081.243.155.422.375.802 1.053 1.52 2.036 2.156.151.098.333.204.545.317.218.105.533.244.946.415a3.3 3.3 0 001.26.262c.428.002.801-.096 1.12-.295.33-.215.676-.604 1.04-1.167l3.519-5.442 1.272.823-3.462 5.353c-.461.714-.903 1.214-1.327 1.5-1.48 1.02-3.371.785-5.672-.702a9.047 9.047 0 01-.601-.425 6.877 6.877 0 01-.775-.68 6.585 6.585 0 01-.829-.928 4.623 4.623 0 01-.582-1.145 3.445 3.445 0 01-.185-1.37c.052-.633.363-1.39.933-2.272l3.38-5.228zm13.022 21.669l-6.947-4.959 6.153-8.619 1.221.872-5.403 7.569 5.725 4.087-.749 1.05zm13.956-.932l-3.419-2.665-5.735 7.359-1.183-.922 5.735-7.36-3.407-2.655.774-.994 8.01 6.243-.775.994zm-2.26 10.31l-1.173-.981 6.792-8.125 1.174.981-6.793 8.125zm7.265 1.135l-3.567-3.099.807-.928 3.567 3.099-.807.928zm-1.535 3.795l7.214-7.753 4.865 4.527c1.244 1.158 1.785 2.31 1.621 3.455a3.153 3.153 0 01-.842 1.696c-.701.754-1.514 1.084-2.437.99a3.1 3.1 0 01-1.051-.302 4.45 4.45 0 01-.814-.49 15.14 15.14 0 01-.822-.725l-3.722-3.463-2.892 3.107-1.12-1.042zm4.859-2.998l3.58 3.331c.256.239.472.425.646.56.175.136.402.258.682.369.287.103.571.135.853.096.401-.05.769-.254 1.103-.612.306-.33.474-.693.502-1.09a1.78 1.78 0 00-.203-.906c-.145-.299-.294-.527-.449-.684-.147-.165-.364-.38-.649-.645l-3.459-3.22-2.606 2.8zm12.635 20.185l-1.214-1.246.969-2.746-4.542-4.663-2.77.897-1.183-1.214 11.417-3.457 1.12 1.15-3.797 11.279zm.176-5.302l1.95-5.522-5.603 1.773 3.653 3.75zm16.223 7.993l-8.424.244-3.079 2.699-.979-1.116 3.102-2.72 1.381-8.232 1.275 1.455-1.203 6.501 6.662-.274 1.265 1.443zm-5.139 8.007l1.031 1.269-1.478 1.201c-.45.366-.866.536-1.247.511-.375-.017-.749-.248-1.123-.692l.64-.52c.188.183.349.278.483.284.141.015.312-.06.514-.224l.349-.284-.426-.523 1.257-1.022zm12.036 18.692l-.836-1.154 7.407-5.271-9.905 1.82-.827-1.142 4.828-8.83c-4.668 3.442-7.107 5.24-7.318 5.392l-.827-1.142 8.577-6.211 1.214 1.677-4.731 8.759 9.799-1.762 1.196 1.653-8.577 6.211zm7.875 12.375l-.935-1.467 1.507-2.491-3.501-5.489-2.894.315-.911-1.429 11.881-1.065.863 1.353-6.01 10.273zm1.249-5.155l3.032-5.011-5.846.597 2.814 4.414zm4.986 16.22l-.97-1.709 1.922-5.213-2.525-4.449-3.692 2.096-.748-1.318 9.21-5.227 3.562 6.274c.35.618.579 1.132.686 1.543.185.711.148 1.365-.112 1.961-.26.595-.707 1.074-1.342 1.434-1.165.661-2.234.612-3.205-.147a5.498 5.498 0 01-.818-.864l-1.968 5.619zm-.498-11.998l2.585 4.553c.182.321.339.577.47.767.136.199.33.4.582.601.266.206.544.33.833.373.398.073.797-.004 1.197-.231a2.03 2.03 0 00.767-.746c.214-.351.29-.694.228-1.026-.058-.324-.207-.699-.449-1.125l-2.873-5.062-3.34 1.896zm6.424 23.844l-.902-1.796 2.949-6.833-3.632-1.853-2.936 1.473-.653-1.3 9.466-4.75.666 1.327-5.041 2.53 8.465 4.294.989 1.971-5.968-2.997-3.403 7.934zm4.406 10.039l-4.119-9.282 9.68-4.295 3.961 8.925-1.193.529-3.353-7.554-2.879 1.278 3.268 7.362-1.152.511-3.267-7.362-3.264 1.448 3.511 7.911-1.193.529zm12.68 6.793l-1.583-4.035-8.685 3.409-.548-1.396 8.685-3.409-1.579-4.022 1.173-.46 3.71 9.453-1.173.46zm-8.329 4.438l10.017-3.436 2.156 6.286c.552 1.608.485 2.878-.199 3.81-.385.513-.899.88-1.542 1.1-.974.334-1.846.242-2.616-.276a3.102 3.102 0 01-.785-.762 4.422 4.422 0 01-.486-.816c-.103-.24-.231-.582-.383-1.026l-1.65-4.81-4.016 1.377-.496-1.447zm5.699-.353l1.586 4.625c.114.331.216.598.306.799.09.202.233.417.428.647.204.225.44.388.706.487.378.145.798.138 1.262-.021.425-.146.744-.387.956-.724.156-.255.239-.553.249-.894.013-.332-.012-.604-.074-.815a10.677 10.677 0 00-.268-.876l-1.533-4.469-3.618 1.241zm.892 21.13l-2.414-8.186 10.157-2.996.424 1.439-8.92 2.631 1.99 6.747-1.237.365zm3.238 13.247l-.413-1.69 2.23-1.872-1.545-6.324-2.841-.634-.402-1.647 11.59 2.821.381 1.559-9 7.787zm2.844-4.477l4.484-3.767-5.726-1.319 1.242 5.086zm2.459 15.429l-.032 1.624c-2.262-.615-3.676-2.436-4.242-5.463-.226-1.209-.23-2.318-.012-3.325a5.202 5.202 0 011.451-2.606c.75-.72 1.725-1.193 2.924-1.417 1.642-.307 3.064.007 4.266.942 1.202.935 1.986 2.375 2.35 4.321.524 2.802-.119 4.941-1.928 6.419l-.634-1.514a3.458 3.458 0 001.243-2.003c.194-.809.205-1.676.032-2.6a7.107 7.107 0 00-.392-1.361 4.97 4.97 0 00-.67-1.218 4.16 4.16 0 00-.968-.932c-.362-.248-.801-.42-1.317-.517a4.533 4.533 0 00-1.675.023c-1.395.261-2.372.917-2.928 1.967-.546 1.049-.682 2.31-.406 3.784.392 2.094 1.371 3.386 2.938 3.876zm-1.318 13.694l-1.392-10.06 10.491-1.451 1.338 9.673-1.293.179-1.133-8.187-3.12.432 1.104 7.979-1.248.172-1.104-7.979-3.536.489 1.186 8.574-1.293.179zm1.816 2.444l.171 1.626-1.895.199c-.577.061-1.018-.024-1.324-.253-.304-.22-.492-.617-.562-1.193l.82-.086c.057.255.14.423.249.502.11.089.294.12.553.093l.447-.047-.07-.672 1.611-.169zm-.217 20.545l-.092-1.737 2.538-1.427-.345-6.501-2.675-1.15-.09-1.692 10.866 4.921.085 1.603-10.287 5.983zm3.625-3.872l5.105-2.87-5.383-2.358.278 5.228zm-3.686 4.724l10.59-.014.009 6.645c.002 1.7-.471 2.881-1.421 3.542a3.15 3.15 0 01-1.814.542c-1.03.002-1.825-.367-2.386-1.107a3.084 3.084 0 01-.497-.974c-.11-.36-.175-.67-.196-.93-.02-.26-.031-.625-.031-1.095l-.007-5.085-4.245.006-.002-1.53zm5.507 1.508l.007 4.89c0 .35.01.635.031.855.02.22.085.47.196.749.12.28.29.51.51.69.311.259.711.389 1.201.388.45 0 .83-.126 1.14-.376.229-.191.404-.446.524-.766.119-.31.184-.575.193-.795.02-.22.03-.525.029-.915l-.006-4.725-3.825.005zm-5.562 10.213l10.581.459-.288 6.638c-.073 1.699-.599 2.857-1.577 3.475a3.146 3.146 0 01-1.836.461c-1.029-.044-1.808-.448-2.335-1.212a3.092 3.092 0 01-.452-.995 4.413 4.413 0 01-.155-.938 15.21 15.21 0 01.017-1.095l.22-5.08-4.241-.184.066-1.529zm5.435 1.752l-.212 4.886a10.05 10.05 0 00-.007.855c.011.221.065.473.163.758.107.285.267.522.479.711.299.273.693.421 1.182.442.45.019.835-.089 1.155-.326.238-.179.424-.427.558-.741.133-.305.21-.567.229-.786.03-.219.053-.523.07-.913l.204-4.72-3.821-.166z" fill="#fff"/><defs><clipPath id="clip0_321_11004"><path fill="#fff" transform="rotate(120 140.01 348.645)" d="M0 0h29.837v29.837H0z"/></clipPath><clipPath id="clip1_321_11004"><path fill="#fff" transform="rotate(-120 141.12 203.56)" d="M0 0h29.837v29.837H0z"/></clipPath><clipPath id="clip2_321_11004"><path fill="#fff" transform="translate(250.581 .933)" d="M0 0h29.837v29.837H0z"/></clipPath></defs></svg>