<svg width="542" height="530" fill="none" xmlns="http://www.w3.org/2000/svg"><path fill-rule="evenodd" clip-rule="evenodd" d="M45.744 407a261.946 261.946 0 0064.799 68.659l.504-.871A260.936 260.936 0 0146.937 407h-1.193zm-.733-280a260.902 260.902 0 0166.453-71.094l-.504-.87A261.903 261.903 0 0043.829 127h1.182zm478.337 109h-1.006a257.842 257.842 0 00-16.086-65h1.074a258.874 258.874 0 0116.018 65zM239 6.232v1.005a257.866 257.866 0 00-76.796 19.704l-.505-.871A258.865 258.865 0 01239 6.232zM522.453 294h1.006a258.78 258.78 0 01-22.06 80h-1.101a257.8 257.8 0 0022.155-80zM235 523.342a257.82 257.82 0 01-73.272-19.488l-.504.872A258.786 258.786 0 00235 524.348v-1.006z" fill="#3A3A3A"/><g clip-path="url(#clip0_321_11246)"><path fill-rule="evenodd" clip-rule="evenodd" d="M148.514 493.098c.584-5.27-1.919-10.631-6.804-13.452-6.587-3.803-15.009-1.546-18.812 5.041a13.749 13.749 0 00-1.809 5.849c-.382 5.109 2.116 10.229 6.85 12.962 6.586 3.803 15.008 1.546 18.811-5.04a13.74 13.74 0 001.764-5.36zm-26.61-8.985c4.12-7.135 13.244-9.58 20.379-5.461 7.136 4.12 9.581 13.244 5.461 20.379-4.12 7.136-13.244 9.581-20.379 5.461-7.135-4.12-9.58-13.244-5.461-20.379z" fill="#3A3A3A"/><path d="M141.781 495.589l-12.92-7.46m0 0l2.1 7.839m-2.1-7.839l7.838-2.1" stroke="#E2E2E2" stroke-width="1.721"/></g><g clip-path="url(#clip1_321_11246)"><path fill-rule="evenodd" clip-rule="evenodd" d="M143.973 51.148a13.81 13.81 0 01-2.263 1.63c-6.587 3.802-15.009 1.546-18.812-5.04-3.327-5.764-2.015-12.933 2.777-17.182a13.887 13.887 0 012.264-1.63c6.586-3.803 15.009-1.546 18.811 5.04 3.328 5.763 2.016 12.932-2.777 17.182zm3.771-17.756c4.12 7.136 1.675 16.26-5.46 20.38-7.136 4.12-16.26 1.674-20.379-5.461-4.12-7.136-1.675-16.26 5.46-20.38 7.136-4.119 16.26-1.674 20.379 5.461z" fill="#3A3A3A"/><path d="M127.867 44.868l12.92-7.459m0 0l-7.838-2.1m7.838 2.1l-2.1 7.838" stroke="#E2E2E2" stroke-width="1.721"/></g><g clip-path="url(#clip2_321_11246)"><path fill-rule="evenodd" clip-rule="evenodd" d="M525.97 279.269l.178.001c7.606 0 13.771-6.165 13.771-13.77 0-6.705-4.792-12.291-11.138-13.52a13.836 13.836 0 00-2.633-.251c-7.605 0-13.771 6.165-13.771 13.771 0 6.654 4.721 12.207 10.996 13.491.84.172 1.709.267 2.597.278zm.178 1.149c-8.239 0-14.918-6.679-14.918-14.918 0-8.24 6.679-14.919 14.918-14.919 8.239 0 14.919 6.679 14.919 14.919 0 8.239-6.68 14.918-14.919 14.918z" fill="#3A3A3A"/><path d="M526.148 257.466v14.919m0 0l5.738-5.738m-5.738 5.738l-5.738-5.738" stroke="#E2E2E2" stroke-width="1.721"/></g><path d="M266.485 11.292l-1.47.03-8.466-8.595c.125 5.318.192 8.237.203 8.757l-1.44.029-.209-10.588 1.545-.03 8.406 8.58a5695.87 5695.87 0 01-.218-8.742l1.44-.029.209 10.588zm12.011-8.942l-7.932-.24-.102 3.39 7.631.23-.037 1.245-7.632-.231-.14 4.648-1.485-.045.32-10.585 9.416.284-.039 1.305zm10.63.68l-4.325-.298-.64 9.308-1.496-.102.639-9.309-4.31-.296.087-1.257 10.131.696-.086 1.257zm6.931-.556l1.502.202-.861 6.408c-.054.396-.07.742-.049 1.037.021.296.089.542.203.739a3.3 3.3 0 00.279.4c.07.08.177.186.321.316.681.566 1.601.927 2.761 1.083.178.024.387.042.628.054.242.002.586-.007 1.033-.028.447-.02.864-.12 1.251-.3a2.05 2.05 0 00.887-.744c.207-.336.355-.835.444-1.5l.863-6.422 1.502.202-.85 6.318c-.113.843-.3 1.483-.561 1.923-.905 1.553-2.715 2.147-5.431 1.782a9.212 9.212 0 01-.724-.128 6.907 6.907 0 01-.991-.284 6.542 6.542 0 01-1.145-.487 4.586 4.586 0 01-1.015-.787 3.465 3.465 0 01-.752-1.16c-.222-.596-.264-1.413-.124-2.454l.829-6.17zm22.978 4.949l-4.263-.79-1.698 9.175-1.475-.274 1.698-9.174-4.247-.786.229-1.24 9.985 1.85-.229 1.239zm1.933 10.004l-1.496-.324 2.243-10.35 1.496.324-2.243 10.35zm11.79 2.851l-8.282-2.06 2.554-10.276 1.456.361-2.244 9.026 6.828 1.697-.312 1.252zm3.193.955l-1.473-.413 2.863-10.196 1.473.413-2.863 10.196zm14.02-5.459l-4.136-1.297-2.791 8.903-1.432-.449 2.792-8.902-4.123-1.293.377-1.202 9.69 3.038-.377 1.202zm13.45 3.556l-7.282 4.242-1.413 3.843-1.394-.512 1.424-3.872-2.724-7.89 1.816.668 2.052 6.284 5.719-3.426 1.802.662zm-1.244 9.251l1.515.615-.717 1.765c-.218.538-.5.887-.847 1.049-.337.165-.776.143-1.317-.066l.311-.764c.252.07.438.076.559.017.131-.055.245-.203.343-.444l.169-.417-.625-.254.609-1.5zm16.916 9.296l-1.783-.826-1.468-5.359-4.641-2.15-1.785 3.85-1.374-.637 4.453-9.608 6.546 3.034c.644.299 1.129.584 1.455.856.564.471.914 1.025 1.049 1.66.135.636.049 1.285-.258 1.948-.563 1.215-1.461 1.797-2.693 1.744a5.576 5.576 0 01-1.168-.227l1.667 5.715zm-7.382-9.472l4.75 2.202c.336.155.612.272.829.35.226.084.501.134.823.15a1.78 1.78 0 00.894-.18c.367-.172.646-.466.84-.884a2.02 2.02 0 00.19-1.052c-.03-.411-.167-.734-.411-.968-.235-.23-.575-.448-1.02-.654l-5.28-2.448-1.615 3.484zm17.408 14.757l-8.999-4.707 4.908-9.384 8.653 4.526-.605 1.156-7.323-3.83-1.46 2.791 7.137 3.733-.584 1.117-7.137-3.733-1.655 3.163 7.669 4.011-.604 1.157zm16.76-2.468l-9.661 6.615-1.307-.765.961-11.708 1.437.841-.884 9.824 8.03-5.64 1.424.833zm4.092 15.336l-8.51-5.54 5.778-8.875 8.184 5.328-.712 1.093-6.927-4.51-1.718 2.64 6.75 4.396-.687 1.056-6.751-4.396-1.948 2.992 7.253 4.723-.712 1.093zm11.476 8.333l-1.187-.868-1.52-11.968a6844.807 6844.807 0 01-5.149 7.087l-1.162-.85 6.254-8.547 1.247.913 1.481 11.92a5904.49 5904.49 0 015.128-7.083l1.162.85-6.254 8.546zm8.886-6.466l1.172.96-4.097 5.002a5.236 5.236 0 00-.586.857 1.7 1.7 0 00-.215.736c.001.22.01.382.028.487.017.105.053.25.107.437.282.84.876 1.63 1.781 2.37.139.115.308.24.506.377.205.129.503.302.894.518.391.218.799.351 1.223.401.424.05.806-.005 1.145-.167.352-.177.74-.525 1.165-1.043l4.106-5.013 1.172.96-4.04 4.932c-.538.657-1.034 1.105-1.486 1.341-1.586.847-3.439.403-5.558-1.334a9.207 9.207 0 01-.55-.489 6.915 6.915 0 01-.694-.762c-.29-.34-.529-.68-.719-1.016a4.586 4.586 0 01-.45-1.202 3.454 3.454 0 01-.031-1.383c.123-.623.517-1.341 1.183-2.153l3.944-4.816zM441.278 81.3l-7.543-6.8 7.091-7.866 7.253 6.538-.874.97-6.139-5.534-2.109 2.34 5.983 5.392-.843.936-5.984-5.393-2.39 2.652 6.429 5.795-.874.97zm5.417 2.275l1.381.602c-.01.262-.016.463-.018.605a4.653 4.653 0 00.352 1.416c.335.831.921 1.677 1.758 2.537.879.903 1.71 1.413 2.493 1.53.6.086 1.108-.074 1.523-.478.23-.223.367-.469.413-.737.053-.261.015-.537-.116-.829a4.556 4.556 0 00-.413-.79 8.946 8.946 0 00-.584-.772l-1.022-1.266a86.643 86.643 0 01-1.126-1.415 6.124 6.124 0 01-.55-.952 2.656 2.656 0 01-.261-1.043c-.019-.68.229-1.27.745-1.772.774-.753 1.689-.96 2.745-.62.916.28 1.893.955 2.932 2.023 1.765 1.813 2.487 3.573 2.167 5.28l-1.36-.602a5.285 5.285 0 00-.388-1.946c-.246-.597-.68-1.215-1.3-1.853a7.812 7.812 0 00-.912-.808 5.969 5.969 0 00-.957-.617 1.853 1.853 0 00-.984-.215 1.277 1.277 0 00-.843.38c-.193.189-.32.389-.379.6-.046.212-.024.435.065.67.096.227.199.433.31.619.117.178.277.392.479.643l2.065 2.574c.688.865 1.066 1.683 1.134 2.455.067.772-.204 1.454-.813 2.047a3.145 3.145 0 01-1.049.686c-.384.15-.83.215-1.339.193-.502-.028-1.076-.223-1.721-.585-.639-.37-1.3-.905-1.983-1.608-.921-.946-1.618-1.942-2.092-2.988s-.591-2.034-.352-2.964zm20.598 11.592l-2.885-3.236-6.964 6.208-.998-1.12 6.964-6.208-2.875-3.225.941-.838 6.757 7.58-.94.839zm1.284 16.372l-1.236-1.527 1.043-5.458-3.219-3.975-3.299 2.672-.954-1.178 8.23-6.664 4.541 5.607c.447.552.756 1.022.929 1.41.299.671.369 1.322.21 1.952-.158.631-.521 1.175-1.089 1.635-1.041.843-2.103.97-3.186.379a5.524 5.524 0 01-.948-.718l-1.022 5.865zm-2.454-11.755l3.294 4.069c.233.287.43.514.59.68.166.174.391.34.673.498.296.159.59.236.882.231.405.007.786-.134 1.143-.424.295-.239.507-.526.635-.861.153-.382.172-.732.057-1.05-.11-.31-.319-.655-.627-1.036l-3.663-4.523-2.984 2.416zm9.112 20.879l-6.008-8.187 8.538-6.265 5.777 7.873-1.052.772-4.89-6.664-2.54 1.864 4.766 6.494-1.016.746-4.765-6.494-2.879 2.112 5.121 6.977-1.052.772zm7.818 11.777l-.962-1.45 1.463-2.517-3.596-5.427-2.888.367-.936-1.413 11.86-1.274.886 1.338-5.827 10.376zm1.158-5.176l2.943-5.063-5.835.699 2.892 4.364zm6.725 18.839l-.711-1.235 7.914-4.471-10.04.779-.704-1.222 5.722-8.279a4389.114 4389.114 0 01-7.84 4.6l-.703-1.221 9.177-5.285 1.033 1.794-5.618 8.22 9.929-.732 1.018 1.768-9.177 5.284zm2.679.615l1.136.99c-.088.246-.155.436-.199.57a4.703 4.703 0 00-.09 1.456c.07.895.375 1.878.914 2.949.567 1.126 1.207 1.862 1.919 2.208.546.263 1.078.263 1.596.002.286-.144.491-.337.616-.578.129-.233.175-.509.138-.826a4.527 4.527 0 00-.157-.878 8.845 8.845 0 00-.324-.912l-.595-1.514a80.817 80.817 0 01-.649-1.689 6.146 6.146 0 01-.238-1.072 2.659 2.659 0 01.064-1.074c.186-.653.6-1.142 1.243-1.466.965-.486 1.9-.408 2.805.234.789.543 1.518 1.48 2.189 2.811 1.138 2.259 1.298 4.155.479 5.687l-1.116-.983a5.287 5.287 0 00.215-1.973c-.055-.644-.283-1.363-.684-2.158a7.745 7.745 0 00-.627-1.045 5.892 5.892 0 00-.727-.876 1.844 1.844 0 00-.873-.501 1.28 1.28 0 00-.919.11 1.357 1.357 0 00-.542.458 1.17 1.17 0 00-.139.658c.023.246.06.474.109.684.059.205.147.458.264.757l1.197 3.076c.396 1.031.511 1.926.343 2.682-.168.756-.631 1.325-1.39 1.708a3.135 3.135 0 01-1.207.339c-.411.028-.856-.045-1.335-.218-.47-.177-.959-.536-1.466-1.075-.498-.545-.967-1.254-1.408-2.129-.594-1.179-.96-2.339-1.097-3.479-.138-1.14.047-2.117.555-2.933zM36.287 382.564l-.46-1.558c2.34-.097 4.24 1.211 5.694 3.925.581 1.084.92 2.14 1.017 3.166a5.201 5.201 0 01-.595 2.923c-.498.913-1.284 1.658-2.36 2.234-1.471.789-2.921.92-4.35.393-1.429-.528-2.611-1.664-3.546-3.409-1.347-2.512-1.382-4.746-.104-6.702l1.062 1.252a3.461 3.461 0 00-.579 2.285c.06.83.311 1.66.755 2.488.232.432.494.825.786 1.179a4.99 4.99 0 001.007.958c.383.271.785.47 1.205.596.42.127.89.159 1.411.094a4.535 4.535 0 001.59-.528c1.25-.671 1.983-1.591 2.196-2.76.204-1.165-.048-2.408-.757-3.73-1.007-1.877-2.33-2.813-3.972-2.806zm-8.48-.472l-.643-1.372 5.854-2.743c.362-.17.661-.343.899-.521a1.69 1.69 0 00.51-.571c.095-.199.157-.349.187-.451.029-.102.06-.249.091-.441.108-.878-.087-1.847-.584-2.907a7.768 7.768 0 00-.294-.558 21.22 21.22 0 00-.582-.853 3.29 3.29 0 00-.93-.889 2.05 2.05 0 00-1.106-.344c-.394.008-.894.154-1.5.438l-5.868 2.75-.643-1.371 5.772-2.706c.77-.36 1.41-.55 1.92-.568 1.797-.08 3.276 1.121 4.439 3.602.101.217.196.443.284.678.093.221.192.551.297.987a6.4 6.4 0 01.21 1.227 4.54 4.54 0 01-.112 1.279c-.11.471-.3.891-.569 1.26-.38.509-1.045.987-1.996 1.432l-5.636 2.642zm2.258-15.222l-1.056-1.075c.108-.238.19-.423.244-.553a4.728 4.728 0 00.203-1.445c0-.897-.227-1.9-.681-3.011-.477-1.166-1.057-1.95-1.74-2.351-.524-.304-1.055-.347-1.592-.127a1.34 1.34 0 00-.658.529c-.147.222-.215.493-.203.812.003.323.032.619.088.888.052.26.136.571.252.934l.475 1.556c.252.826.423 1.404.515 1.734.079.325.13.687.154 1.088.02.392-.03.747-.148 1.065-.236.637-.688 1.092-1.354 1.365-1 .409-1.926.258-2.778-.452-.744-.603-1.398-1.594-1.962-2.973-.958-2.342-.97-4.244-.034-5.707l1.036 1.067a5.284 5.284 0 00-.369 1.95c.005.646.176 1.381.513 2.204.163.398.344.762.544 1.091.19.333.409.643.656.931.244.278.521.467.832.567.302.103.61.091.924-.038.25-.102.442-.24.577-.414a1.17 1.17 0 00.19-.645 4.97 4.97 0 00-.056-.69 8.737 8.737 0 00-.204-.776l-.953-3.16c-.314-1.059-.359-1.96-.132-2.701.226-.74.732-1.272 1.52-1.594a3.133 3.133 0 011.228-.243c.413.004.85.111 1.315.321.455.213.914.609 1.377 1.187.454.581.866 1.325 1.238 2.232.5 1.222.773 2.406.822 3.554.048 1.147-.213 2.107-.783 2.88zm-14.813-18.62l1.456 4.083 8.788-3.134.504 1.413-8.788 3.134 1.451 4.069-1.187.423-3.41-9.565 1.186-.423zm-.471-15.95c1.495-.445 2.897-.273 4.207.517 1.307.78 2.247 2.133 2.82 4.059.567 1.908.558 3.559-.029 4.954-.598 1.388-1.717 2.327-3.356 2.814-.882.263-1.723.33-2.522.203-.81-.125-1.514-.405-2.113-.842a6.58 6.58 0 01-1.588-1.656 7.982 7.982 0 01-1.034-2.212 7.94 7.94 0 01-.337-2.342 6.667 6.667 0 01.377-2.256c.242-.729.669-1.383 1.28-1.961.61-.578 1.375-1.004 2.295-1.278zm.288 1.495a4.194 4.194 0 00-1.346.682c-.412.3-.766.687-1.063 1.162-.31.467-.493 1.059-.551 1.776-.059.716.04 1.501.293 2.354a6.25 6.25 0 00.79 1.706c.325.497.716.918 1.173 1.262.457.344.993.566 1.607.665.61.089 1.266.03 1.965-.178 1.256-.374 2.116-1.094 2.581-2.161.465-1.067.475-2.348.03-3.843-.248-.834-.58-1.528-.995-2.083-.425-.552-.885-.942-1.38-1.17a4.254 4.254 0 00-1.521-.377 4.77 4.77 0 00-1.583.205zm.895-18.808l.323 1.387-8.87 1.988 9.835 2.162.32 1.373-7.874 6.268c5.637-1.364 8.583-2.075 8.836-2.134l.32 1.374-10.315 2.4-.469-2.016 7.758-6.241-9.716-2.174-.463-1.987 10.315-2.4zm-.712-4.276l.285 1.503-10.405 1.971-.285-1.503 10.405-1.971zm-2.147-13.243l1.617 10.45-1.246.193-9.213-6.969 1.172 7.575-1.275.197-1.498-9.679 1.23-.191 9.202 6.986-1.293-8.361 1.304-.201zm-1.473-14.289l.175 1.731-2.466 1.547.658 6.476 2.727 1.02.171 1.686-11.09-4.391-.162-1.597 9.987-6.472zm-3.434 4.042l-4.961 3.113 5.49 2.095-.53-5.208zm-6.386-14.069l.23 4.329 9.316-.494.08 1.498-9.317.494.229 4.314-1.258.067-.538-10.141 1.258-.067zm9.283-4.168l.036 1.529-10.587.248-.036-1.529 10.587-.248zm-5.021-15.682c1.56.026 2.845.613 3.855 1.761 1.011 1.137 1.5 2.711 1.465 4.72-.034 1.99-.541 3.562-1.52 4.715-.99 1.143-2.34 1.7-4.05 1.671-.92-.016-1.742-.205-2.466-.567-.734-.363-1.32-.843-1.76-1.44a6.58 6.58 0 01-1.015-2.058 7.974 7.974 0 01-.319-2.421c.014-.81.142-1.588.385-2.334a6.66 6.66 0 011.04-2.037c.45-.623 1.054-1.117 1.81-1.484.757-.368 1.615-.543 2.575-.526zm-.176 1.512a4.206 4.206 0 00-1.49.244 4.119 4.119 0 00-1.363.787c-.436.353-.79.862-1.061 1.527-.272.666-.415 1.443-.43 2.333-.011.66.068 1.282.238 1.865.16.572.406 1.092.739 1.557.332.466.775.839 1.33 1.118.556.27 1.199.411 1.929.423 1.31.023 2.347-.405 3.112-1.282.765-.877 1.161-2.095 1.188-3.655.014-.87-.092-1.632-.321-2.286-.24-.654-.56-1.164-.964-1.531a4.229 4.229 0 00-1.337-.818 4.74 4.74 0 00-1.57-.282zm6.314-15.292l-.106 1.466-9.334 7.642c5.307.364 8.22.564 8.739.601l-.104 1.437-10.562-.763.111-1.541 9.315-7.584c-5.458-.364-8.366-.559-8.725-.585l.104-1.436 10.562.763zm-1.137-3.818l.183-1.625 1.893.214c.576.065.99.242 1.238.532.25.279.348.708.293 1.286l-.82-.093c0-.262-.046-.443-.135-.543-.088-.111-.261-.181-.52-.21l-.447-.05-.075.67-1.61-.181zm1.081-18.485l.585-1.515c1.916 1.35 2.623 3.544 2.123 6.583-.2 1.214-.575 2.257-1.124 3.129a5.202 5.202 0 01-2.253 1.955c-.95.421-2.028.532-3.232.334-1.648-.272-2.877-1.052-3.689-2.341-.81-1.289-1.055-2.91-.734-4.864.464-2.812 1.798-4.604 4.003-5.376l.08 1.64a3.46 3.46 0 00-1.853 1.458c-.459.695-.765 1.506-.917 2.433a7.18 7.18 0 00-.096 1.413c.005.457.077.915.214 1.374.14.448.336.851.592 1.207.255.356.61.668 1.062.935.453.267.98.45 1.582.549 1.4.231 2.542-.052 3.423-.849.872-.799 1.43-1.939 1.673-3.419.347-2.101-.133-3.65-1.439-4.646zm1.51-16.155c1.523.338 2.666 1.169 3.427 2.495.764 1.316.928 2.956.494 4.918-.43 1.943-1.24 3.382-2.43 4.317-1.198.923-2.632 1.199-4.302.83-.898-.199-1.666-.548-2.303-1.048-.647-.501-1.126-1.089-1.438-1.762a6.576 6.576 0 01-.584-2.219 7.975 7.975 0 01.17-2.436 7.95 7.95 0 01.843-2.21 6.672 6.672 0 011.425-1.789c.566-.52 1.256-.884 2.07-1.093.815-.209 1.69-.21 2.628-.003zm-.474 1.447a4.2 4.2 0 00-1.508-.057 4.123 4.123 0 00-1.493.499c-.498.259-.946.687-1.345 1.285-.398.598-.694 1.331-.886 2.2a6.246 6.246 0 00-.138 1.875c.042.593.18 1.151.413 1.673.232.523.593.977 1.081 1.361.49.375 1.092.642 1.805.799 1.279.283 2.38.072 3.306-.635.924-.707 1.555-1.822 1.892-3.345.188-.85.235-1.618.141-2.304-.103-.689-.316-1.253-.639-1.693a4.224 4.224 0 00-1.146-1.068 4.77 4.77 0 00-1.483-.59zm9.366-14.05l-.401 1.414-10.689 5.594c5.124 1.43 7.936 2.216 8.437 2.358l-.393 1.386-10.189-2.886.421-1.487 10.658-5.54c-5.271-1.462-8.08-2.242-8.426-2.34l.392-1.385 10.19 2.886zm-5.02-14.261l-1.391 4.106 8.836 2.995-.482 1.421-8.836-2.996-1.387 4.092-1.193-.405 3.26-9.617 1.194.404zm13.492-9.022l-.71 1.832-5.256 1.805-1.852 4.767 3.957 1.538-.549 1.412-9.871-3.835 2.613-6.725c.257-.662.51-1.164.762-1.507.434-.593.964-.977 1.59-1.152.626-.175 1.28-.131 1.96.134 1.249.485 1.886 1.344 1.911 2.577 0 .332-.051.725-.152 1.18l5.598-2.026zm-8.984 7.967l1.896-4.879c.134-.345.233-.628.298-.85.068-.231.1-.508.097-.831a1.79 1.79 0 00-.237-.881c-.195-.354-.507-.615-.935-.782a2.035 2.035 0 00-1.063-.123c-.408.056-.721.214-.94.472-.214.249-.41.602-.588 1.059l-2.107 5.425 3.579 1.39zm10.079-22.856c1.421.644 2.368 1.693 2.84 3.147.476 1.446.3 3.084-.53 4.915-.82 1.812-1.91 3.054-3.267 3.723-1.362.657-2.822.632-4.38-.073-.838-.38-1.517-.88-2.038-1.5-.53-.624-.878-1.297-1.044-2.021a6.574 6.574 0 01-.115-2.291 7.973 7.973 0 01.668-2.348 7.95 7.95 0 011.28-1.99 6.668 6.668 0 011.763-1.457c.661-.392 1.412-.607 2.252-.644.84-.036 1.697.143 2.571.539zm-.761 1.319a4.182 4.182 0 00-1.465-.367 4.118 4.118 0 00-1.564.181c-.54.15-1.067.477-1.58.98-.513.503-.953 1.16-1.32 1.971a6.24 6.24 0 00-.522 1.805c-.08.59-.06 1.164.06 1.723.12.56.379 1.078.777 1.555.403.468.937.852 1.602 1.154 1.194.54 2.315.56 3.366.058 1.05-.501 1.897-1.462 2.54-2.883.36-.793.564-1.534.613-2.226.041-.695-.051-1.291-.276-1.788a4.252 4.252 0 00-.902-1.281 4.773 4.773 0 00-1.33-.882zm10.747-9.458l-3.887 7.599-9.428-4.824.683-1.335 8.28 4.236 3.204-6.263 1.148.587zm443.077 253.962l.703-1.239 7.868 4.553-5.765-8.257.696-1.227 10.038.731c-5.068-2.82-7.716-4.294-7.942-4.422l.696-1.226 9.21 5.228-1.022 1.8-9.934-.672 5.668 8.186-1.007 1.774-9.209-5.229zm7.649 7.67l-.823 1.273-5.429-3.511a5.185 5.185 0 00-.918-.486 1.69 1.69 0 00-.755-.131 3.155 3.155 0 00-.481.082 4.204 4.204 0 00-.422.155c-.802.375-1.521 1.053-2.156 2.036a7.45 7.45 0 00-.317.545c-.105.218-.244.533-.415.946a3.311 3.311 0 00-.262 1.26c-.002.428.096.801.295 1.12.215.33.604.676 1.167 1.04l5.441 3.519-.822 1.272-5.353-3.462c-.714-.461-1.214-.903-1.5-1.327-1.02-1.48-.785-3.371.702-5.672.131-.202.272-.402.425-.601a6.76 6.76 0 01.68-.775c.306-.326.615-.602.928-.829.313-.226.695-.42 1.145-.582a3.443 3.443 0 011.37-.185c.633.052 1.391.363 2.272.933l5.228 3.38zm-21.669 13.022l4.959-6.947 8.619 6.154-.872 1.22-7.569-5.403-4.087 5.725-1.05-.749zm.932 13.956l2.665-3.419-7.359-5.735.922-1.183 7.359 5.735 2.656-3.407.994.774-6.243 8.01-.994-.775zm-10.31-2.26l.981-1.173 8.125 6.792-.981 1.174-8.125-6.793zm-1.135 7.265l3.099-3.567.928.807-3.099 3.567-.928-.807zm-3.795-1.535l7.753 7.214-4.527 4.865c-1.158 1.244-2.31 1.785-3.455 1.621a3.15 3.15 0 01-1.696-.842c-.754-.701-1.084-1.514-.99-2.437.036-.362.137-.712.302-1.051a4.44 4.44 0 01.49-.814 15.5 15.5 0 01.724-.822l3.465-3.722-3.108-2.892 1.042-1.12zm2.998 4.859l-3.331 3.58a10.04 10.04 0 00-.561.646 2.782 2.782 0 00-.368.682 1.773 1.773 0 00-.096.853c.049.401.254.769.612 1.103.33.306.693.474 1.09.502.298.017.6-.05.906-.203.299-.145.527-.294.684-.449.165-.147.38-.364.645-.649l3.219-3.459-2.8-2.606zm-20.185 12.635l1.246-1.214 2.746.969 4.663-4.542-.897-2.77 1.214-1.183 3.457 11.417-1.15 1.12-11.279-3.797zm5.302.176l5.522 1.95-1.773-5.603-3.749 3.653zm-7.993 16.223l-.244-8.424-2.699-3.079 1.116-.979 2.72 3.102 8.232 1.381-1.455 1.275-6.501-1.203.274 6.662-1.443 1.265zm-8.007-5.139l-1.269 1.031-1.201-1.478c-.366-.45-.536-.866-.511-1.247.017-.375.248-.749.692-1.123l.52.64c-.183.188-.278.349-.284.483-.015.141.06.312.224.514l.284.349.523-.426 1.022 1.257zm-18.692 12.036l1.154-.836 5.271 7.407-1.82-9.905 1.142-.827 8.83 4.828c-3.442-4.668-5.24-7.107-5.392-7.318l1.142-.827 6.211 8.577-1.677 1.214-8.759-4.731 1.762 9.799-1.653 1.196-6.211-8.577zm-12.375 7.875l1.467-.935 2.491 1.507 5.489-3.501-.315-2.894 1.429-.911 1.065 11.881-1.354.863-10.272-6.01zm5.155 1.249l5.011 3.032-.597-5.846-4.414 2.814zm-16.22 4.986l1.709-.97 5.213 1.922 4.449-2.525-2.096-3.692 1.318-.748 5.227 9.21-6.274 3.562c-.618.35-1.132.579-1.543.686-.711.185-1.365.148-1.961-.112-.595-.26-1.074-.707-1.434-1.342-.661-1.165-.612-2.234.147-3.205.21-.258.498-.53.864-.818l-5.619-1.968zm11.998-.498l-4.553 2.585c-.321.182-.577.339-.767.47-.199.136-.4.33-.601.582-.206.266-.33.544-.373.833-.073.398.004.797.231 1.197.188.33.436.586.746.767.352.214.694.29 1.026.228.324-.058.699-.207 1.125-.449l5.062-2.873-1.896-3.34zm-23.844 6.424l1.796-.902 6.833 2.949 1.853-3.632-1.473-2.936 1.3-.653 4.75 9.466-1.327.666-2.53-5.041-4.294 8.465-1.971.989 2.997-5.968-7.934-3.403zm-10.039 4.406l9.282-4.119 4.295 9.68-8.925 3.961-.529-1.193 7.554-3.353-1.278-2.879-7.362 3.268-.511-1.152 7.362-3.267-1.448-3.264-7.911 3.511-.529-1.193zm-6.793 12.68l4.035-1.583-3.409-8.685 1.396-.548 3.409 8.685 4.022-1.579.46 1.173-9.453 3.71-.46-1.173zm-4.438-8.329l3.436 10.017-6.286 2.156c-1.608.552-2.878.485-3.81-.199a3.158 3.158 0 01-1.1-1.542c-.334-.974-.242-1.846.276-2.616.203-.302.457-.564.762-.785.305-.221.577-.383.816-.486.24-.103.582-.231 1.026-.383l4.81-1.65-1.377-4.016 1.447-.496zm.353 5.699l-4.625 1.586c-.331.114-.598.216-.799.306-.202.09-.417.233-.646.428-.226.204-.389.44-.488.706-.145.378-.138.798.021 1.262.146.425.387.744.724.956.255.156.553.239.894.249.332.013.604-.012.815-.074.215-.052.507-.142.876-.268l4.469-1.533-1.241-3.618zm-21.13.892l8.186-2.414 2.996 10.157-1.439.424-2.631-8.92-6.747 1.99-.365-1.237zm-13.247 3.238l1.69-.413 1.872 2.23 6.324-1.545.634-2.841 1.647-.402-2.821 11.59-1.559.381-7.787-9zm4.477 2.844l3.767 4.484 1.319-5.726-5.086 1.242zm-15.429 2.459l-1.624-.032c.615-2.262 2.436-3.676 5.463-4.242 1.209-.226 2.318-.23 3.325-.012a5.202 5.202 0 012.606 1.451c.72.75 1.193 1.725 1.417 2.924.307 1.642-.007 3.064-.942 4.266-.935 1.202-2.375 1.986-4.321 2.35-2.802.524-4.941-.119-6.419-1.928l1.514-.634a3.462 3.462 0 002.003 1.243c.809.194 1.676.205 2.6.032.482-.09.935-.22 1.361-.392a4.951 4.951 0 001.218-.67c.374-.284.685-.606.933-.968.247-.362.419-.801.516-1.317a4.533 4.533 0 00-.023-1.675c-.261-1.395-.917-2.372-1.967-2.928-1.048-.546-2.31-.682-3.784-.406-2.094.392-3.386 1.371-3.876 2.938zm-13.694-1.318l10.06-1.392 1.451 10.49-9.673 1.338-.179-1.292 8.187-1.133-.432-3.12-7.979 1.104-.172-1.248 7.979-1.104-.489-3.536-8.574 1.185-.179-1.292zm-2.444 1.816l-1.626.171-.199-1.895c-.06-.577.024-1.018.253-1.324.22-.304.617-.492 1.193-.562l.086.82c-.255.057-.422.14-.502.249-.089.11-.12.294-.092.553l.046.447.672-.07.169 1.611zm-20.545-.217l1.737-.092 1.427 2.538 6.501-.345 1.15-2.675 1.692-.09-4.921 10.866-1.603.085-5.983-10.287zm3.872 3.625l2.87 5.105 2.358-5.383-5.228.278zm-4.724-3.686l.014 10.59-6.645.009c-1.7.002-2.881-.472-3.542-1.421a3.15 3.15 0 01-.542-1.814c-.002-1.03.367-1.825 1.107-2.386.289-.221.614-.386.974-.497.36-.11.67-.176.93-.196.26-.02.625-.031 1.095-.031l5.085-.007-.006-4.245 1.53-.002zm-1.508 5.507l-4.89.006a9.7 9.7 0 00-.855.032c-.22.02-.47.085-.749.195-.28.121-.51.291-.69.511-.259.311-.389.711-.388 1.201 0 .45.126.83.376 1.139.191.23.446.405.766.524.31.12.575.185.795.194.22.02.525.03.915.029l4.725-.006-.005-3.825zm-10.214-5.562l-.458 10.581-6.638-.288c-1.699-.073-2.857-.599-3.475-1.577a3.146 3.146 0 01-.461-1.836c.044-1.029.448-1.808 1.212-2.335.299-.207.631-.358.995-.452.365-.095.677-.146.938-.155.26-.009.625-.003 1.095.017l5.08.22.184-4.241 1.528.066zm-1.751 5.435l-4.886-.212a10.05 10.05 0 00-.855-.007 2.795 2.795 0 00-.758.163 1.767 1.767 0 00-.711.479c-.273.299-.421.693-.442 1.182-.019.45.089.835.325 1.155.18.238.428.424.742.558.305.133.567.21.786.229.219.03.523.053.913.07l4.72.204.166-3.821z" fill="#fff"/><defs><clipPath id="clip0_321_11246"><path fill="#fff" transform="rotate(-150 138.73 237.18)" d="M0 0h29.837v29.837H0z"/></clipPath><clipPath id="clip1_321_11246"><path fill="#fff" transform="rotate(-30 123.263 -195.862)" d="M0 0h29.837v29.837H0z"/></clipPath><clipPath id="clip2_321_11246"><path fill="#fff" transform="rotate(90 145.243 395.824)" d="M0 0h29.837v29.837H0z"/></clipPath></defs></svg>